<svg xmlns="http://www.w3.org/2000/svg" width="48.02" height="48.02" viewBox="0 0 48.02 48.02">
  <g id="trades" transform="translate(-68 -381)">
    <g id="coin" transform="translate(68 381)">
      <path id="Path_2264" data-name="Path 2264" d="M24.01,0A24.01,24.01,0,1,0,48.02,24.01,24.037,24.037,0,0,0,24.01,0Zm0,44.86A20.85,20.85,0,1,1,44.86,24.01,20.874,20.874,0,0,1,24.01,44.86Z" fill="#08f8ff"/>
      <circle id="Ellipse_164" data-name="Ellipse 164" cx="22.345" cy="22.345" r="22.345" transform="translate(1.58 1.58)" fill="#08f8ff"/>
      <path id="Path_2265" data-name="Path 2265" d="M81.5,44.045v-8.97a4.545,4.545,0,0,1,2.216,1.765A1.58,1.58,0,1,0,86.356,35.1,7.69,7.69,0,0,0,81.5,31.8v-2.51a1.58,1.58,0,0,0-3.16,0v2.505a7.707,7.707,0,0,0,0,15.089v8.97a4.545,4.545,0,0,1-2.216-1.765,1.58,1.58,0,1,0-2.639,1.738,7.69,7.69,0,0,0,4.855,3.306v2.51a1.58,1.58,0,0,0,3.16,0v-2.5a7.707,7.707,0,0,0,0-15.089Zm-6.132-4.709a4.55,4.55,0,0,1,2.972-4.26V43.6A4.55,4.55,0,0,1,75.369,39.335ZM81.5,55.849v-8.52a4.539,4.539,0,0,1,0,8.52Z" transform="translate(-55.911 -21.453)" fill="#1626cc"/>
    </g>
  </g>
</svg>
