<svg xmlns="http://www.w3.org/2000/svg" xmlns:xlink="http://www.w3.org/1999/xlink" viewBox="0 0 141 176"><defs><style>.cls-1{fill:url(#linear-gradient);}</style><linearGradient id="linear-gradient" y1="88" x2="141" y2="88" gradientUnits="userSpaceOnUse"><stop offset="0" stop-color="#0d0cec"/><stop offset="1" stop-color="#00d0ae"/></linearGradient></defs><title>Asset 18</title><g id="Layer_2" data-name="Layer 2"><g id="Layer_1-2" data-name="Layer 1"><path class="cls-1" d="M141,88a70.47,70.47,0,0,0-32.43-59.29l1.13-1.14a7,7,0,0,0-9.9-9.89l-4.39,4.38A69.76,69.76,0,0,0,77.5,17.85V7a7,7,0,0,0-14,0V17.85a70.49,70.49,0,0,0-27,131.9,7,7,0,0,0,10.93,8.57l2.8-2.8a70,70,0,0,0,13.25,2.63V169a7,7,0,0,0,14,0V158.15A70.6,70.6,0,0,0,141,88ZM83.44,34,77.5,40V33A53.11,53.11,0,0,1,83.44,34ZM77.5,98.13H87.85L77.5,108.48Zm-14-14H53.15L63.5,73.77ZM15,88A55.56,55.56,0,0,1,63.5,33V54L31.3,86.18a7,7,0,0,0,4.95,11.95H63.5v24.35l-16,16A55.57,55.57,0,0,1,15,88Zm47.82,55,.68-.69V143ZM77.5,143V128.27l32.2-32.2a7,7,0,0,0-5-11.94H77.5V59.77L97.65,39.62A55.47,55.47,0,0,1,77.5,143Z"/></g></g></svg>