<svg xmlns="http://www.w3.org/2000/svg" xmlns:xlink="http://www.w3.org/1999/xlink" viewBox="0 0 212.42 457.96"><defs><style>.cls-1{isolation:isolate;}.cls-2{fill:#0380fc;}.cls-3{fill:#0381fc;}.cls-4{fill:#0382fc;}.cls-5{fill:#0383fc;}.cls-6{fill:#0384fc;}.cls-7{fill:#0385fc;}.cls-8{fill:#0386fc;}.cls-9{fill:#0387fc;}.cls-10{fill:#0388fc;}.cls-11{fill:#0389fc;}.cls-12{fill:#038afc;}.cls-13{fill:#038bfc;}.cls-14{fill:#038cfc;}.cls-15{fill:#038dfc;}.cls-16{fill:#038efc;}.cls-17{fill:#038ffc;}.cls-18{fill:#0390fc;}.cls-19{fill:#0391fc;}.cls-20{fill:#0392fc;}.cls-21{fill:#0393fc;}.cls-22{fill:#0394fc;}.cls-23{fill:#0294fd;}.cls-24{fill:#0295fd;}.cls-25{fill:#0296fd;}.cls-26{fill:#0297fd;}.cls-27{fill:#0298fd;}.cls-28{fill:#0299fd;}.cls-29{fill:#029afd;}.cls-30{fill:#029bfd;}.cls-31{fill:#029cfd;}.cls-32{fill:#029dfd;}.cls-33{fill:#029efd;}.cls-34{fill:#029ffd;}.cls-35{fill:#02a0fd;}.cls-36{fill:#02a1fd;}.cls-37{fill:#02a2fd;}.cls-38{fill:#02a3fd;}.cls-39{fill:#02a4fd;}.cls-40{fill:#02a5fd;}.cls-41{fill:#02a6fd;}.cls-42{fill:#02a7fd;}.cls-43{fill:#02a8fd;}.cls-44{fill:#02a9fd;}.cls-45{fill:#02aafd;}.cls-46{fill:#02abfd;}.cls-47{fill:#02acfd;}.cls-48{fill:#02adfd;}.cls-49{fill:#02aefd;}.cls-50{fill:#02affd;}.cls-51{fill:#02b0fd;}.cls-52{fill:#02b1fd;}.cls-53{fill:#02b2fd;}.cls-54{fill:#02b3fd;}.cls-55{fill:#02b4fd;}.cls-56{fill:#02b5fd;}.cls-57{fill:#02b6fd;}.cls-58{fill:#02b7fd;}.cls-59{fill:#02b8fd;}.cls-60{fill:#02b9fd;}.cls-61{fill:#02bafd;}.cls-62{fill:#02bbfd;}.cls-63{fill:#01bcfe;}.cls-64{fill:#01bdfe;}.cls-65{fill:#01befe;}.cls-66{fill:#01bffe;}.cls-67{fill:#01c0fe;}.cls-68{fill:#01c1fe;}.cls-69{fill:#01c2fe;}.cls-70{fill:#01c3fe;}.cls-71{fill:#01c4fe;}.cls-72{fill:#01c5fe;}.cls-73{fill:#01c6fe;}.cls-74{fill:#01c7fe;}.cls-75{fill:#01c8fe;}.cls-76{fill:#01c9fe;}.cls-77{fill:#01cafe;}.cls-78{fill:#01cbfe;}.cls-79{fill:#01ccfe;}.cls-80{fill:#01cdfe;}.cls-81{fill:#01cefe;}.cls-82{fill:#01cffe;}.cls-83{fill:#01d0fe;}.cls-84{fill:#01d1fe;}.cls-85{fill:#01d2fe;}.cls-86{fill:#01d3fe;}.cls-87{fill:#01d4fe;}.cls-88{fill:#01d5fe;}.cls-89{fill:#01d6fe;}.cls-90{fill:#01d7fe;}.cls-91{fill:#01d8fe;}.cls-92{fill:#01d9fe;}.cls-93{fill:#01dafe;}.cls-94{fill:#01dbfe;}.cls-95{fill:#01dcfe;}.cls-96{fill:#01ddfe;}.cls-97{fill:#01defe;}.cls-98{fill:#01dffe;}.cls-99{fill:#01e0fe;}.cls-100{fill:#01e1fe;}.cls-101{fill:#01e2fe;}.cls-102{fill:#01e3fe;}.cls-103{fill:#00e3ff;}.cls-104{fill:#00e4ff;}.cls-105{fill:#00e5ff;}.cls-106{fill:#00e6ff;}.cls-107{fill:#00e7ff;}.cls-108{fill:#00e8ff;}.cls-109{fill:#00e9ff;}.cls-110{fill:#00eaff;}.cls-111{fill:#00ebff;}.cls-112{fill:#00ecff;}.cls-113{fill:#00edff;}.cls-114{fill:#0ef;}.cls-115{fill:#00efff;}.cls-116{fill:#00f0ff;}.cls-117{fill:#00f1ff;}.cls-118{fill:#00f2ff;}.cls-119{fill:#00f3ff;}.cls-120{fill:#00f4ff;}.cls-121{fill:#00f5ff;}.cls-122{fill:#00f6ff;}.cls-123{fill:#00f7ff;}.cls-124{fill:#0380fb;}.cls-125{fill:#037ffb;}.cls-126{fill:#037ffa;}.cls-127{fill:#037efa;}.cls-128{fill:#037ef9;}.cls-129{fill:#037df9;}.cls-130{fill:#037df8;}.cls-131{fill:#037cf8;}.cls-132{fill:#037cf7;}.cls-133{fill:#037bf7;}.cls-134{fill:#037bf6;}.cls-135{fill:#037bf5;}.cls-136{fill:#037af5;}.cls-137{fill:#037af4;}.cls-138{fill:#0379f4;}.cls-139{fill:#0379f3;}.cls-140{fill:#0278f3;}.cls-141{fill:#0278f2;}.cls-142{fill:#0277f2;}.cls-143{fill:#0277f1;}.cls-144{fill:#0276f1;}.cls-145{fill:#0276f0;}.cls-146{fill:#0276ef;}.cls-147{fill:#0275ef;}.cls-148{fill:#0275ee;}.cls-149{fill:#0274ee;}.cls-150{fill:#0274ed;}.cls-151{fill:#0273ed;}.cls-152{fill:#0273ec;}.cls-153{fill:#0272ec;}.cls-154{fill:#0272eb;}.cls-155{fill:#0271eb;}.cls-156{fill:#0271ea;}.cls-157{fill:#fff;}.cls-158{fill:url(#linear-gradient);}.cls-159{fill:url(#linear-gradient-2);}</style><linearGradient id="linear-gradient" x1="71.21" y1="140.79" x2="71.21" gradientUnits="userSpaceOnUse"><stop offset="0" stop-color="#fff"/><stop offset="0.04" stop-color="#efefef" stop-opacity="0.94"/><stop offset="0.19" stop-color="#b0b0b0" stop-opacity="0.69"/><stop offset="0.35" stop-color="#7b7b7b" stop-opacity="0.48"/><stop offset="0.5" stop-color="#4f4f4f" stop-opacity="0.31"/><stop offset="0.64" stop-color="#2c2c2c" stop-opacity="0.17"/><stop offset="0.77" stop-color="#141414" stop-opacity="0.08"/><stop offset="0.9" stop-color="#050505" stop-opacity="0.02"/><stop offset="1" stop-opacity="0"/></linearGradient><linearGradient id="linear-gradient-2" x1="141.21" y1="240.79" x2="141.21" y2="119" xlink:href="#linear-gradient"/></defs><title>Asset 28</title><g id="Layer_2" data-name="Layer 2"><g id="Layer_1-2" data-name="Layer 1"><g class="cls-1"><polygon class="cls-2" points="141.42 300 70.94 340.96 0 300 70.48 259.04 141.42 300"/><polygon class="cls-3" points="141.42 299.21 70.94 340.17 0 299.21 70.48 258.25 141.42 299.21"/><polygon class="cls-3" points="141.42 298.42 70.94 339.38 0 298.42 70.48 257.46 141.42 298.42"/><polygon class="cls-4" points="141.42 297.63 70.94 338.58 0 297.63 70.48 256.67 141.42 297.63"/><polygon class="cls-4" points="141.42 296.83 70.94 337.79 0 296.84 70.48 255.88 141.42 296.83"/><polygon class="cls-5" points="141.42 296.04 70.94 337 0 296.05 70.48 255.09 141.42 296.04"/><polygon class="cls-6" points="141.42 295.25 70.94 336.21 0 295.25 70.48 254.3 141.42 295.25"/><polygon class="cls-6" points="141.42 294.46 70.94 335.42 0 294.46 70.48 253.5 141.42 294.46"/><polygon class="cls-7" points="141.42 293.67 70.94 334.63 0 293.67 70.48 252.71 141.42 293.67"/><polygon class="cls-7" points="141.42 292.88 70.94 333.84 0 292.88 70.48 251.92 141.42 292.88"/><polygon class="cls-8" points="141.42 292.09 70.94 333.05 0 292.09 70.48 251.13 141.42 292.09"/><polygon class="cls-9" points="141.42 291.3 70.94 332.26 0 291.3 70.48 250.34 141.42 291.3"/><polygon class="cls-9" points="141.42 290.51 70.94 331.46 0 290.51 70.48 249.55 141.42 290.51"/><polygon class="cls-10" points="141.42 289.72 70.94 330.67 0 289.72 70.48 248.76 141.42 289.72"/><polygon class="cls-10" points="141.42 288.93 70.94 329.88 0 288.93 70.48 247.97 141.42 288.93"/><polygon class="cls-11" points="141.42 288.13 70.94 329.09 0 288.13 70.48 247.18 141.42 288.13"/><polygon class="cls-11" points="141.42 287.34 70.94 328.3 0 287.34 70.48 246.39 141.42 287.34"/><polygon class="cls-12" points="141.42 286.55 70.94 327.51 0 286.55 70.48 245.59 141.42 286.55"/><polygon class="cls-13" points="141.42 285.76 70.94 326.72 0 285.76 70.48 244.8 141.42 285.76"/><polygon class="cls-13" points="141.42 284.97 70.94 325.93 0 284.97 70.48 244.01 141.42 284.97"/><polygon class="cls-14" points="141.42 284.18 70.94 325.14 0 284.18 70.48 243.22 141.42 284.18"/><polygon class="cls-14" points="141.42 283.39 70.94 324.35 0 283.39 70.48 242.43 141.42 283.39"/><polygon class="cls-15" points="141.42 282.6 70.94 323.56 0 282.6 70.48 241.64 141.42 282.6"/><polygon class="cls-16" points="141.42 281.81 70.94 322.76 0 281.81 70.48 240.85 141.42 281.81"/><polygon class="cls-16" points="141.42 281.01 70.94 321.97 0 281.01 70.48 240.06 141.42 281.01"/><polygon class="cls-17" points="141.42 280.22 70.94 321.18 0 280.22 70.48 239.27 141.42 280.22"/><polygon class="cls-17" points="141.42 279.43 70.94 320.39 0 279.43 70.48 238.47 141.42 279.43"/><polygon class="cls-18" points="141.42 278.64 70.94 319.6 0 278.64 70.48 237.68 141.42 278.64"/><polygon class="cls-19" points="141.42 277.85 70.94 318.81 0 277.85 70.48 236.89 141.42 277.85"/><polygon class="cls-19" points="141.42 277.06 70.94 318.02 0 277.06 70.48 236.1 141.42 277.06"/><polygon class="cls-20" points="141.42 276.27 70.94 317.23 0 276.27 70.48 235.31 141.42 276.27"/><polygon class="cls-20" points="141.42 275.48 70.94 316.44 0 275.48 70.48 234.52 141.42 275.48"/><polygon class="cls-21" points="141.42 274.69 70.94 315.64 0 274.69 70.48 233.73 141.42 274.69"/><polygon class="cls-22" points="141.42 273.89 70.94 314.85 0 273.9 70.48 232.94 141.42 273.89"/><polygon class="cls-23" points="141.42 273.1 70.94 314.06 0 273.11 70.48 232.15 141.42 273.1"/><polygon class="cls-24" points="141.42 272.31 70.94 313.27 0 272.31 70.48 231.36 141.42 272.31"/><polygon class="cls-24" points="141.42 271.52 70.94 312.48 0 271.52 70.48 230.56 141.42 271.52"/><polygon class="cls-25" points="141.42 270.73 70.94 311.69 0 270.73 70.48 229.77 141.42 270.73"/><polygon class="cls-25" points="141.42 269.94 70.94 310.9 0 269.94 70.48 228.98 141.42 269.94"/><polygon class="cls-26" points="141.42 269.15 70.94 310.11 0 269.15 70.48 228.19 141.42 269.15"/><polygon class="cls-27" points="141.42 268.36 70.94 309.32 0 268.36 70.48 227.4 141.42 268.36"/><polygon class="cls-27" points="141.42 267.57 70.94 308.52 0 267.57 70.48 226.61 141.42 267.57"/><polygon class="cls-28" points="141.42 266.78 70.94 307.73 0 266.78 70.48 225.82 141.42 266.78"/><polygon class="cls-28" points="141.42 265.99 70.94 306.94 0 265.99 70.48 225.03 141.42 265.99"/><polygon class="cls-29" points="141.42 265.19 70.94 306.15 0 265.19 70.48 224.24 141.42 265.19"/><polygon class="cls-30" points="141.42 264.4 70.94 305.36 0 264.4 70.48 223.44 141.42 264.4"/><polygon class="cls-30" points="141.42 263.61 70.94 304.57 0 263.61 70.48 222.65 141.42 263.61"/><polygon class="cls-31" points="141.42 262.82 70.94 303.78 0 262.82 70.48 221.86 141.42 262.82"/><polygon class="cls-31" points="141.42 262.03 70.94 302.99 0 262.03 70.48 221.07 141.42 262.03"/><polygon class="cls-32" points="141.42 261.24 70.94 302.2 0 261.24 70.48 220.28 141.42 261.24"/><polygon class="cls-33" points="141.42 260.45 70.94 301.4 0 260.45 70.48 219.49 141.42 260.45"/><polygon class="cls-33" points="141.42 259.66 70.94 300.61 0 259.66 70.48 218.7 141.42 259.66"/><polygon class="cls-34" points="141.42 258.87 70.94 299.82 0 258.87 70.48 217.91 141.42 258.87"/><polygon class="cls-34" points="141.42 258.07 70.94 299.03 0 258.07 70.48 217.12 141.42 258.07"/><polygon class="cls-35" points="141.42 257.28 70.94 298.24 0 257.28 70.48 216.33 141.42 257.28"/><polygon class="cls-36" points="141.42 256.49 70.94 297.45 0 256.49 70.48 215.53 141.42 256.49"/><polygon class="cls-36" points="141.42 255.7 70.94 296.66 0 255.7 70.48 214.74 141.42 255.7"/><polygon class="cls-37" points="141.42 254.91 70.94 295.87 0 254.91 70.48 213.95 141.42 254.91"/><polygon class="cls-37" points="141.42 254.12 70.94 295.08 0 254.12 70.48 213.16 141.42 254.12"/><polygon class="cls-38" points="141.42 253.33 70.94 294.29 0 253.33 70.48 212.37 141.42 253.33"/><polygon class="cls-39" points="141.42 252.54 70.94 293.5 0 252.54 70.48 211.58 141.42 252.54"/><polygon class="cls-39" points="141.42 251.75 70.94 292.7 0 251.75 70.48 210.79 141.42 251.75"/><polygon class="cls-40" points="141.42 250.96 70.94 291.91 0 250.96 70.48 210 141.42 250.96"/><polygon class="cls-40" points="141.42 250.16 70.94 291.12 0 250.16 70.48 209.21 141.42 250.16"/><polygon class="cls-41" points="141.42 249.37 70.94 290.33 0 249.37 70.48 208.42 141.42 249.37"/><polygon class="cls-41" points="141.42 248.58 70.94 289.54 0 248.58 70.48 207.63 141.42 248.58"/><polygon class="cls-42" points="141.42 247.79 70.94 288.75 0 247.79 70.48 206.83 141.42 247.79"/><polygon class="cls-43" points="141.42 247 70.94 287.96 0 247 70.48 206.04 141.42 247"/><polygon class="cls-43" points="141.42 246.21 70.94 287.17 0 246.21 70.48 205.25 141.42 246.21"/><polygon class="cls-44" points="141.42 245.42 70.94 286.38 0 245.42 70.48 204.46 141.42 245.42"/><polygon class="cls-44" points="141.42 244.63 70.94 285.58 0 244.63 70.48 203.67 141.42 244.63"/><polygon class="cls-45" points="141.42 243.84 70.94 284.79 0 243.84 70.48 202.88 141.42 243.84"/><polygon class="cls-46" points="141.42 243.04 70.94 284 0 243.04 70.48 202.09 141.42 243.04"/><polygon class="cls-46" points="141.42 242.25 70.94 283.21 0 242.25 70.48 201.3 141.42 242.25"/><polygon class="cls-47" points="141.42 241.46 70.94 282.42 0 241.46 70.48 200.5 141.42 241.46"/><polygon class="cls-47" points="141.42 240.67 70.94 281.63 0 240.67 70.48 199.71 141.42 240.67"/><polygon class="cls-48" points="141.42 239.88 70.94 280.84 0 239.88 70.48 198.92 141.42 239.88"/><polygon class="cls-49" points="141.42 239.09 70.94 280.05 0 239.09 70.48 198.13 141.42 239.09"/><polygon class="cls-49" points="141.42 238.3 70.94 279.26 0 238.3 70.48 197.34 141.42 238.3"/><polygon class="cls-50" points="141.42 237.51 70.94 278.46 0 237.51 70.48 196.55 141.42 237.51"/><polygon class="cls-50" points="141.42 236.72 70.94 277.67 0 236.72 70.48 195.76 141.42 236.72"/><polygon class="cls-51" points="141.42 235.93 70.94 276.88 0 235.93 70.48 194.97 141.42 235.93"/><polygon class="cls-52" points="141.42 235.13 70.94 276.09 0 235.13 70.48 194.18 141.42 235.13"/><polygon class="cls-52" points="141.42 234.34 70.94 275.3 0 234.34 70.48 193.39 141.42 234.34"/><polygon class="cls-53" points="141.42 233.55 70.94 274.51 0 233.55 70.48 192.59 141.42 233.55"/><polygon class="cls-53" points="141.42 232.76 70.94 273.72 0 232.76 70.48 191.8 141.42 232.76"/><polygon class="cls-54" points="141.42 231.97 70.94 272.93 0 231.97 70.48 191.01 141.42 231.97"/><polygon class="cls-55" points="141.42 231.18 70.94 272.14 0 231.18 70.48 190.22 141.42 231.18"/><polygon class="cls-55" points="141.42 230.39 70.94 271.35 0 230.39 70.48 189.43 141.42 230.39"/><polygon class="cls-56" points="141.42 229.6 70.94 270.56 0 229.6 70.48 188.64 141.42 229.6"/><polygon class="cls-56" points="141.42 228.81 70.94 269.76 0 228.81 70.48 187.85 141.42 228.81"/><polygon class="cls-57" points="141.42 228.01 70.94 268.97 0 228.01 70.48 187.06 141.42 228.01"/><polygon class="cls-57" points="141.42 227.22 70.94 268.18 0 227.22 70.48 186.27 141.42 227.22"/><polygon class="cls-58" points="141.42 226.43 70.94 267.39 0 226.43 70.48 185.47 141.42 226.43"/><polygon class="cls-59" points="141.42 225.64 70.94 266.6 0 225.64 70.48 184.68 141.42 225.64"/><polygon class="cls-59" points="141.42 224.85 70.94 265.81 0 224.85 70.48 183.89 141.42 224.85"/><polygon class="cls-60" points="141.42 224.06 70.94 265.02 0 224.06 70.48 183.1 141.42 224.06"/><polygon class="cls-60" points="141.42 223.27 70.94 264.23 0 223.27 70.48 182.31 141.42 223.27"/><polygon class="cls-61" points="141.42 222.48 70.94 263.44 0 222.48 70.48 181.52 141.42 222.48"/><polygon class="cls-62" points="141.42 221.69 70.94 262.64 0 221.69 70.48 180.73 141.42 221.69"/><polygon class="cls-62" points="141.42 220.9 70.94 261.85 0 220.9 70.48 179.94 141.42 220.9"/><polygon class="cls-63" points="141.42 220.1 70.94 261.06 0 220.1 70.48 179.15 141.42 220.1"/><polygon class="cls-63" points="141.42 219.31 70.94 260.27 0 219.31 70.48 178.36 141.42 219.31"/><polygon class="cls-64" points="141.42 218.52 70.94 259.48 0 218.52 70.48 177.56 141.42 218.52"/><polygon class="cls-65" points="141.42 217.73 70.94 258.69 0 217.73 70.48 176.77 141.42 217.73"/><polygon class="cls-65" points="141.42 216.94 70.94 257.9 0 216.94 70.48 175.98 141.42 216.94"/><polygon class="cls-66" points="141.42 216.15 70.94 257.11 0 216.15 70.48 175.19 141.42 216.15"/><polygon class="cls-66" points="141.42 215.36 70.94 256.32 0 215.36 70.48 174.4 141.42 215.36"/><polygon class="cls-67" points="141.42 214.57 70.94 255.53 0 214.57 70.48 173.61 141.42 214.57"/><polygon class="cls-68" points="141.42 213.78 70.94 254.73 0 213.78 70.48 172.82 141.42 213.78"/><polygon class="cls-68" points="141.42 212.99 70.94 253.94 0 212.99 70.48 172.03 141.42 212.99"/><polygon class="cls-69" points="141.42 212.19 70.94 253.15 0 212.19 70.48 171.24 141.42 212.19"/><polygon class="cls-69" points="141.42 211.4 70.94 252.36 0 211.4 70.48 170.44 141.42 211.4"/><polygon class="cls-70" points="141.42 210.61 70.94 251.57 0 210.61 70.48 169.65 141.42 210.61"/><polygon class="cls-70" points="141.42 209.82 70.94 250.78 0 209.82 70.48 168.86 141.42 209.82"/><polygon class="cls-71" points="141.42 209.03 70.94 249.99 0 209.03 70.48 168.07 141.42 209.03"/><polygon class="cls-72" points="141.42 208.24 70.94 249.2 0 208.24 70.48 167.28 141.42 208.24"/><polygon class="cls-72" points="141.42 207.45 70.94 248.41 0 207.45 70.48 166.49 141.42 207.45"/><polygon class="cls-73" points="141.42 206.66 70.94 247.61 0 206.66 70.48 165.7 141.42 206.66"/><polygon class="cls-73" points="141.42 205.87 70.94 246.82 0 205.87 70.48 164.91 141.42 205.87"/><polygon class="cls-74" points="141.42 205.07 70.94 246.03 0 205.07 70.48 164.12 141.42 205.07"/><polygon class="cls-75" points="141.42 204.28 70.94 245.24 0 204.28 70.48 163.33 141.42 204.28"/><polygon class="cls-75" points="141.42 203.49 70.94 244.45 0 203.49 70.48 162.53 141.42 203.49"/><polygon class="cls-76" points="141.42 202.7 70.94 243.66 0 202.7 70.48 161.74 141.42 202.7"/><polygon class="cls-76" points="141.42 201.91 70.94 242.87 0 201.91 70.48 160.95 141.42 201.91"/><polygon class="cls-77" points="141.42 201.12 70.94 242.08 0 201.12 70.48 160.16 141.42 201.12"/><polygon class="cls-78" points="141.42 200.33 70.94 241.29 0 200.33 70.48 159.37 141.42 200.33"/><polygon class="cls-78" points="141.42 199.54 70.94 240.5 0 199.54 70.48 158.58 141.42 199.54"/><polygon class="cls-79" points="141.42 198.75 70.94 239.7 0 198.75 70.48 157.79 141.42 198.75"/><polygon class="cls-79" points="141.42 197.96 70.94 238.91 0 197.96 70.48 157 141.42 197.96"/><polygon class="cls-80" points="141.42 197.16 70.94 238.12 0 197.16 70.48 156.21 141.42 197.16"/><polygon class="cls-81" points="141.42 196.37 70.94 237.33 0 196.37 70.48 155.42 141.42 196.37"/><polygon class="cls-81" points="141.42 195.58 70.94 236.54 0 195.58 70.48 154.63 141.42 195.58"/><polygon class="cls-82" points="141.42 194.79 70.94 235.75 0 194.79 70.48 153.83 141.42 194.79"/><polygon class="cls-82" points="141.42 194 70.94 234.96 0 194 70.48 153.04 141.42 194"/><polygon class="cls-83" points="141.42 193.21 70.94 234.17 0 193.21 70.48 152.25 141.42 193.21"/><polygon class="cls-84" points="141.42 192.42 70.94 233.38 0 192.42 70.48 151.46 141.42 192.42"/><polygon class="cls-84" points="141.42 191.63 70.94 232.58 0 191.63 70.48 150.67 141.42 191.63"/><polygon class="cls-85" points="141.42 190.84 70.94 231.79 0 190.84 70.48 149.88 141.42 190.84"/><polygon class="cls-85" points="141.42 190.04 70.94 231 0 190.04 70.48 149.09 141.42 190.04"/><polygon class="cls-86" points="141.42 189.25 70.94 230.21 0 189.25 70.48 148.3 141.42 189.25"/><polygon class="cls-86" points="141.42 188.46 70.94 229.42 0 188.46 70.48 147.5 141.42 188.46"/><polygon class="cls-87" points="141.42 187.67 70.94 228.63 0 187.67 70.48 146.71 141.42 187.67"/><polygon class="cls-88" points="141.42 186.88 70.94 227.84 0 186.88 70.48 145.92 141.42 186.88"/><polygon class="cls-88" points="141.42 186.09 70.94 227.05 0 186.09 70.48 145.13 141.42 186.09"/><polygon class="cls-89" points="141.42 185.3 70.94 226.26 0 185.3 70.48 144.34 141.42 185.3"/><polygon class="cls-89" points="141.42 184.51 70.94 225.47 0 184.51 70.48 143.55 141.42 184.51"/><polygon class="cls-90" points="141.42 183.72 70.94 224.67 0 183.72 70.48 142.76 141.42 183.72"/><polygon class="cls-91" points="141.42 182.93 70.94 223.88 0 182.93 70.48 141.97 141.42 182.93"/><polygon class="cls-91" points="141.42 182.13 70.94 223.09 0 182.13 70.48 141.18 141.42 182.13"/><polygon class="cls-92" points="141.42 181.34 70.94 222.3 0 181.34 70.48 140.39 141.42 181.34"/><polygon class="cls-92" points="141.42 180.55 70.94 221.51 0 180.55 70.48 139.59 141.42 180.55"/><polygon class="cls-93" points="141.42 179.76 70.94 220.72 0 179.76 70.48 138.8 141.42 179.76"/><polygon class="cls-94" points="141.42 178.97 70.94 219.93 0 178.97 70.48 138.01 141.42 178.97"/><polygon class="cls-94" points="141.42 178.18 70.94 219.14 0 178.18 70.48 137.22 141.42 178.18"/><polygon class="cls-95" points="141.42 177.39 70.94 218.35 0 177.39 70.48 136.43 141.42 177.39"/><polygon class="cls-95" points="141.42 176.6 70.94 217.56 0 176.6 70.48 135.64 141.42 176.6"/><polygon class="cls-96" points="141.42 175.81 70.94 216.76 0 175.81 70.48 134.85 141.42 175.81"/><polygon class="cls-97" points="141.42 175.01 70.94 215.97 0 175.01 70.48 134.06 141.42 175.01"/><polygon class="cls-97" points="141.42 174.22 70.94 215.18 0 174.22 70.48 133.27 141.42 174.22"/><polygon class="cls-98" points="141.42 173.43 70.94 214.39 0 173.43 70.48 132.47 141.42 173.43"/><polygon class="cls-98" points="141.42 172.64 70.94 213.6 0 172.64 70.48 131.68 141.42 172.64"/><polygon class="cls-99" points="141.42 171.85 70.94 212.81 0 171.85 70.48 130.89 141.42 171.85"/><polygon class="cls-100" points="141.42 171.06 70.94 212.02 0 171.06 70.48 130.1 141.42 171.06"/><polygon class="cls-100" points="141.42 170.27 70.94 211.23 0 170.27 70.48 129.31 141.42 170.27"/><polygon class="cls-101" points="141.42 169.48 70.94 210.44 0 169.48 70.48 128.52 141.42 169.48"/><polygon class="cls-101" points="141.42 168.69 70.94 209.64 0 168.69 70.48 127.73 141.42 168.69"/><polygon class="cls-102" points="141.42 167.9 70.94 208.85 0 167.9 70.48 126.94 141.42 167.9"/><polygon class="cls-103" points="141.42 167.1 70.94 208.06 0 167.1 70.48 126.15 141.42 167.1"/><polygon class="cls-104" points="141.42 166.31 70.94 207.27 0 166.31 70.48 125.36 141.42 166.31"/><polygon class="cls-105" points="141.42 165.52 70.94 206.48 0 165.52 70.48 124.56 141.42 165.52"/><polygon class="cls-105" points="141.42 164.73 70.94 205.69 0 164.73 70.48 123.77 141.42 164.73"/><polygon class="cls-106" points="141.42 163.94 70.94 204.9 0 163.94 70.48 122.98 141.42 163.94"/><polygon class="cls-106" points="141.42 163.15 70.94 204.11 0 163.15 70.48 122.19 141.42 163.15"/><polygon class="cls-107" points="141.42 162.36 70.94 203.32 0 162.36 70.48 121.4 141.42 162.36"/><polygon class="cls-108" points="141.42 161.57 70.94 202.53 0 161.57 70.48 120.61 141.42 161.57"/><polygon class="cls-108" points="141.42 160.78 70.94 201.73 0 160.78 70.48 119.82 141.42 160.78"/><polygon class="cls-109" points="141.42 159.99 70.94 200.94 0 159.99 70.48 119.03 141.42 159.99"/><polygon class="cls-109" points="141.42 159.19 70.94 200.15 0 159.19 70.48 118.24 141.42 159.19"/><polygon class="cls-110" points="141.42 158.4 70.94 199.36 0 158.4 70.48 117.44 141.42 158.4"/><polygon class="cls-111" points="141.42 157.61 70.94 198.57 0 157.61 70.48 116.65 141.42 157.61"/><polygon class="cls-111" points="141.42 156.82 70.94 197.78 0 156.82 70.48 115.86 141.42 156.82"/><polygon class="cls-112" points="141.42 156.03 70.94 196.99 0 156.03 70.48 115.07 141.42 156.03"/><polygon class="cls-112" points="141.42 155.24 70.94 196.2 0 155.24 70.48 114.28 141.42 155.24"/><polygon class="cls-113" points="141.42 154.45 70.94 195.41 0 154.45 70.48 113.49 141.42 154.45"/><polygon class="cls-114" points="141.42 153.66 70.94 194.61 0 153.66 70.48 112.7 141.42 153.66"/><polygon class="cls-114" points="141.42 152.87 70.94 193.82 0 152.87 70.48 111.91 141.42 152.87"/><polygon class="cls-115" points="141.42 152.07 70.94 193.03 0 152.07 70.48 111.12 141.42 152.07"/><polygon class="cls-115" points="141.42 151.28 70.94 192.24 0 151.28 70.48 110.33 141.42 151.28"/><polygon class="cls-116" points="141.42 150.49 70.94 191.45 0 150.49 70.48 109.53 141.42 150.49"/><polygon class="cls-116" points="141.42 149.7 70.94 190.66 0 149.7 70.48 108.74 141.42 149.7"/><polygon class="cls-117" points="141.42 148.91 70.94 189.87 0 148.91 70.48 107.95 141.42 148.91"/><polygon class="cls-118" points="141.42 148.12 70.94 189.08 0 148.12 70.48 107.16 141.42 148.12"/><polygon class="cls-118" points="141.42 147.33 70.94 188.29 0 147.33 70.48 106.37 141.42 147.33"/><polygon class="cls-119" points="141.42 146.54 70.94 187.5 0 146.54 70.48 105.58 141.42 146.54"/><polygon class="cls-119" points="141.42 145.75 70.94 186.7 0 145.75 70.48 104.79 141.42 145.75"/><polygon class="cls-120" points="141.42 144.96 70.94 185.91 0 144.96 70.48 104 141.42 144.96"/><polygon class="cls-121" points="141.42 144.16 70.94 185.12 0 144.16 70.48 103.21 141.42 144.16"/><polygon class="cls-121" points="141.42 143.37 70.94 184.33 0 143.37 70.48 102.42 141.42 143.37"/><polygon class="cls-122" points="141.42 142.58 70.94 183.54 0 142.58 70.48 101.63 141.42 142.58"/><polygon class="cls-122" points="141.42 141.79 70.94 182.75 0 141.79 70.48 100.83 141.42 141.79"/><polygon class="cls-123" points="141.42 141 70.94 181.96 0 141 70.48 100.04 141.42 141"/></g><g class="cls-1"><polygon class="cls-2" points="212.42 376 141.94 416.96 71 376 141.48 335.04 212.42 376"/><polygon class="cls-2" points="212.42 375.34 141.94 416.3 71 375.34 141.48 334.38 212.42 375.34"/><polygon class="cls-2" points="212.42 374.68 141.94 415.63 71 374.68 141.48 333.72 212.42 374.68"/><polygon class="cls-2" points="212.42 374.01 141.94 414.97 71 374.01 141.48 333.06 212.42 374.01"/><polygon class="cls-2" points="212.42 373.35 141.94 414.31 71 373.35 141.48 332.4 212.42 373.35"/><polygon class="cls-2" points="212.42 372.69 141.94 413.65 71 372.69 141.48 331.73 212.42 372.69"/><polygon class="cls-124" points="212.42 372.03 141.94 412.99 71 372.03 141.48 331.07 212.42 372.03"/><polygon class="cls-125" points="212.42 371.37 141.94 412.33 71 371.37 141.48 330.41 212.42 371.37"/><polygon class="cls-125" points="212.42 370.71 141.94 411.66 71 370.71 141.48 329.75 212.42 370.71"/><polygon class="cls-125" points="212.42 370.04 141.94 411 71 370.05 141.48 329.09 212.42 370.04"/><polygon class="cls-125" points="212.42 369.38 141.94 410.34 71 369.38 141.48 328.43 212.42 369.38"/><polygon class="cls-125" points="212.42 368.72 141.94 409.68 71 368.72 141.48 327.76 212.42 368.72"/><polygon class="cls-125" points="212.42 368.06 141.94 409.02 71 368.06 141.48 327.1 212.42 368.06"/><polygon class="cls-125" points="212.42 367.4 141.94 408.36 71 367.4 141.48 326.44 212.42 367.4"/><polygon class="cls-125" points="212.42 366.74 141.94 407.69 71 366.74 141.48 325.78 212.42 366.74"/><polygon class="cls-125" points="212.42 366.07 141.94 407.03 71 366.07 141.48 325.12 212.42 366.07"/><polygon class="cls-125" points="212.42 365.41 141.94 406.37 71 365.41 141.48 324.45 212.42 365.41"/><polygon class="cls-126" points="212.42 364.75 141.94 405.71 71 364.75 141.48 323.79 212.42 364.75"/><polygon class="cls-126" points="212.42 364.09 141.94 405.05 71 364.09 141.48 323.13 212.42 364.09"/><polygon class="cls-126" points="212.42 363.43 141.94 404.38 71 363.43 141.48 322.47 212.42 363.43"/><polygon class="cls-126" points="212.42 362.77 141.94 403.72 71 362.77 141.48 321.81 212.42 362.77"/><polygon class="cls-127" points="212.42 362.1 141.94 403.06 71 362.11 141.48 321.15 212.42 362.1"/><polygon class="cls-127" points="212.42 361.44 141.94 402.4 71 361.44 141.48 320.49 212.42 361.44"/><polygon class="cls-127" points="212.42 360.78 141.94 401.74 71 360.78 141.48 319.82 212.42 360.78"/><polygon class="cls-127" points="212.42 360.12 141.94 401.08 71 360.12 141.48 319.16 212.42 360.12"/><polygon class="cls-127" points="212.42 359.46 141.94 400.42 71 359.46 141.48 318.5 212.42 359.46"/><polygon class="cls-127" points="212.42 358.8 141.94 399.75 71 358.8 141.48 317.84 212.42 358.8"/><polygon class="cls-127" points="212.42 358.13 141.94 399.09 71 358.13 141.48 317.18 212.42 358.13"/><polygon class="cls-128" points="212.42 357.47 141.94 398.43 71 357.47 141.48 316.51 212.42 357.47"/><polygon class="cls-128" points="212.42 356.81 141.94 397.77 71 356.81 141.48 315.85 212.42 356.81"/><polygon class="cls-128" points="212.42 356.15 141.94 397.11 71 356.15 141.48 315.19 212.42 356.15"/><polygon class="cls-128" points="212.42 355.49 141.94 396.44 71 355.49 141.48 314.53 212.42 355.49"/><polygon class="cls-128" points="212.42 354.83 141.94 395.78 71 354.83 141.48 313.87 212.42 354.83"/><polygon class="cls-128" points="212.42 354.16 141.94 395.12 71 354.17 141.48 313.21 212.42 354.16"/><polygon class="cls-129" points="212.42 353.5 141.94 394.46 71 353.5 141.48 312.55 212.42 353.5"/><polygon class="cls-129" points="212.42 352.84 141.94 393.8 71 352.84 141.48 311.88 212.42 352.84"/><polygon class="cls-129" points="212.42 352.18 141.94 393.14 71 352.18 141.48 311.22 212.42 352.18"/><polygon class="cls-129" points="212.42 351.52 141.94 392.48 71 351.52 141.48 310.56 212.42 351.52"/><polygon class="cls-129" points="212.42 350.86 141.94 391.81 71 350.86 141.48 309.9 212.42 350.86"/><polygon class="cls-129" points="212.42 350.19 141.94 391.15 71 350.19 141.48 309.24 212.42 350.19"/><polygon class="cls-130" points="212.42 349.53 141.94 390.49 71 349.53 141.48 308.57 212.42 349.53"/><polygon class="cls-130" points="212.42 348.87 141.94 389.83 71 348.87 141.48 307.91 212.42 348.87"/><polygon class="cls-130" points="212.42 348.21 141.94 389.17 71 348.21 141.48 307.25 212.42 348.21"/><polygon class="cls-130" points="212.42 347.55 141.94 388.5 71 347.55 141.48 306.59 212.42 347.55"/><polygon class="cls-130" points="212.42 346.88 141.94 387.84 71 346.89 141.48 305.93 212.42 346.88"/><polygon class="cls-130" points="212.42 346.22 141.94 387.18 71 346.22 141.48 305.27 212.42 346.22"/><polygon class="cls-130" points="212.42 345.56 141.94 386.52 71 345.56 141.48 304.61 212.42 345.56"/><polygon class="cls-131" points="212.42 344.9 141.94 385.86 71 344.9 141.48 303.94 212.42 344.9"/><polygon class="cls-131" points="212.42 344.24 141.94 385.2 71 344.24 141.48 303.28 212.42 344.24"/><polygon class="cls-131" points="212.42 343.58 141.94 384.54 71 343.58 141.48 302.62 212.42 343.58"/><polygon class="cls-131" points="212.42 342.92 141.94 383.87 71 342.92 141.48 301.96 212.42 342.92"/><polygon class="cls-132" points="212.42 342.25 141.94 383.21 71 342.25 141.48 301.3 212.42 342.25"/><polygon class="cls-132" points="212.42 341.59 141.94 382.55 71 341.59 141.48 300.63 212.42 341.59"/><polygon class="cls-132" points="212.42 340.93 141.94 381.89 71 340.93 141.48 299.97 212.42 340.93"/><polygon class="cls-132" points="212.42 340.27 141.94 381.23 71 340.27 141.48 299.31 212.42 340.27"/><polygon class="cls-132" points="212.42 339.61 141.94 380.56 71 339.61 141.48 298.65 212.42 339.61"/><polygon class="cls-132" points="212.42 338.94 141.94 379.9 71 338.95 141.48 297.99 212.42 338.94"/><polygon class="cls-132" points="212.42 338.28 141.94 379.24 71 338.28 141.48 297.33 212.42 338.28"/><polygon class="cls-132" points="212.42 337.62 141.94 378.58 71 337.62 141.48 296.66 212.42 337.62"/><polygon class="cls-132" points="212.42 336.96 141.94 377.92 71 336.96 141.48 296 212.42 336.96"/><polygon class="cls-132" points="212.42 336.3 141.94 377.26 71 336.3 141.48 295.34 212.42 336.3"/><polygon class="cls-133" points="212.42 335.64 141.94 376.59 71 335.64 141.48 294.68 212.42 335.64"/><polygon class="cls-134" points="212.42 334.98 141.94 375.93 71 334.98 141.48 294.02 212.42 334.98"/><polygon class="cls-134" points="212.42 334.31 141.94 375.27 71 334.31 141.48 293.36 212.42 334.31"/><polygon class="cls-134" points="212.42 333.65 141.94 374.61 71 333.65 141.48 292.69 212.42 333.65"/><polygon class="cls-134" points="212.42 332.99 141.94 373.95 71 332.99 141.48 292.03 212.42 332.99"/><polygon class="cls-134" points="212.42 332.33 141.94 373.29 71 332.33 141.48 291.37 212.42 332.33"/><polygon class="cls-134" points="212.42 331.67 141.94 372.62 71 331.67 141.48 290.71 212.42 331.67"/><polygon class="cls-134" points="212.42 331 141.94 371.96 71 331 141.48 290.05 212.42 331"/><polygon class="cls-134" points="212.42 330.34 141.94 371.3 71 330.34 141.48 289.39 212.42 330.34"/><polygon class="cls-134" points="212.42 329.68 141.94 370.64 71 329.68 141.48 288.72 212.42 329.68"/><polygon class="cls-134" points="212.42 329.02 141.94 369.98 71 329.02 141.48 288.06 212.42 329.02"/><polygon class="cls-134" points="212.42 328.36 141.94 369.32 71 328.36 141.48 287.4 212.42 328.36"/><polygon class="cls-135" points="212.42 327.7 141.94 368.65 71 327.7 141.48 286.74 212.42 327.7"/><polygon class="cls-136" points="212.42 327.04 141.94 367.99 71 327.04 141.48 286.08 212.42 327.04"/><polygon class="cls-136" points="212.42 326.37 141.94 367.33 71 326.37 141.48 285.42 212.42 326.37"/><polygon class="cls-136" points="212.42 325.71 141.94 366.67 71 325.71 141.48 284.75 212.42 325.71"/><polygon class="cls-136" points="212.42 325.05 141.94 366.01 71 325.05 141.48 284.09 212.42 325.05"/><polygon class="cls-136" points="212.42 324.39 141.94 365.35 71 324.39 141.48 283.43 212.42 324.39"/><polygon class="cls-136" points="212.42 323.73 141.94 364.68 71 323.73 141.48 282.77 212.42 323.73"/><polygon class="cls-136" points="212.42 323.06 141.94 364.02 71 323.06 141.48 282.11 212.42 323.06"/><polygon class="cls-136" points="212.42 322.4 141.94 363.36 71 322.4 141.48 281.44 212.42 322.4"/><polygon class="cls-136" points="212.42 321.74 141.94 362.7 71 321.74 141.48 280.78 212.42 321.74"/><polygon class="cls-136" points="212.42 321.08 141.94 362.04 71 321.08 141.48 280.12 212.42 321.08"/><polygon class="cls-137" points="212.42 320.42 141.94 361.38 71 320.42 141.48 279.46 212.42 320.42"/><polygon class="cls-137" points="212.42 319.76 141.94 360.71 71 319.76 141.48 278.8 212.42 319.76"/><polygon class="cls-137" points="212.42 319.09 141.94 360.05 71 319.1 141.48 278.14 212.42 319.09"/><polygon class="cls-137" points="212.42 318.43 141.94 359.39 71 318.43 141.48 277.48 212.42 318.43"/><polygon class="cls-138" points="212.42 317.77 141.94 358.73 71 317.77 141.48 276.81 212.42 317.77"/><polygon class="cls-138" points="212.42 317.11 141.94 358.07 71 317.11 141.48 276.15 212.42 317.11"/><polygon class="cls-138" points="212.42 316.45 141.94 357.4 71 316.45 141.48 275.49 212.42 316.45"/><polygon class="cls-138" points="212.42 315.79 141.94 356.74 71 315.79 141.48 274.83 212.42 315.79"/><polygon class="cls-138" points="212.42 315.12 141.94 356.08 71 315.13 141.48 274.17 212.42 315.12"/><polygon class="cls-138" points="212.42 314.46 141.94 355.42 71 314.46 141.48 273.5 212.42 314.46"/><polygon class="cls-138" points="212.42 313.8 141.94 354.76 71 313.8 141.48 272.84 212.42 313.8"/><polygon class="cls-139" points="212.42 313.14 141.94 354.1 71 313.14 141.48 272.18 212.42 313.14"/><polygon class="cls-139" points="212.42 312.48 141.94 353.44 71 312.48 141.48 271.52 212.42 312.48"/><polygon class="cls-139" points="212.42 311.82 141.94 352.77 71 311.82 141.48 270.86 212.42 311.82"/><polygon class="cls-139" points="212.42 311.15 141.94 352.11 71 311.15 141.48 270.2 212.42 311.15"/><polygon class="cls-139" points="212.42 310.49 141.94 351.45 71 310.49 141.48 269.54 212.42 310.49"/><polygon class="cls-139" points="212.42 309.83 141.94 350.79 71 309.83 141.48 268.87 212.42 309.83"/><polygon class="cls-140" points="212.42 309.17 141.94 350.13 71 309.17 141.48 268.21 212.42 309.17"/><polygon class="cls-140" points="212.42 308.51 141.94 349.46 71 308.51 141.48 267.55 212.42 308.51"/><polygon class="cls-140" points="212.42 307.85 141.94 348.8 71 307.85 141.48 266.89 212.42 307.85"/><polygon class="cls-140" points="212.42 307.18 141.94 348.14 71 307.18 141.48 266.23 212.42 307.18"/><polygon class="cls-140" points="212.42 306.52 141.94 347.48 71 306.52 141.48 265.56 212.42 306.52"/><polygon class="cls-140" points="212.42 305.86 141.94 346.82 71 305.86 141.48 264.9 212.42 305.86"/><polygon class="cls-141" points="212.42 305.2 141.94 346.16 71 305.2 141.48 264.24 212.42 305.2"/><polygon class="cls-141" points="212.42 304.54 141.94 345.5 71 304.54 141.48 263.58 212.42 304.54"/><polygon class="cls-141" points="212.42 303.88 141.94 344.83 71 303.88 141.48 262.92 212.42 303.88"/><polygon class="cls-141" points="212.42 303.21 141.94 344.17 71 303.21 141.48 262.26 212.42 303.21"/><polygon class="cls-141" points="212.42 302.55 141.94 343.51 71 302.55 141.48 261.6 212.42 302.55"/><polygon class="cls-141" points="212.42 301.89 141.94 342.85 71 301.89 141.48 260.93 212.42 301.89"/><polygon class="cls-141" points="212.42 301.23 141.94 342.19 71 301.23 141.48 260.27 212.42 301.23"/><polygon class="cls-142" points="212.42 300.57 141.94 341.52 71 300.57 141.48 259.61 212.42 300.57"/><polygon class="cls-142" points="212.42 299.9 141.94 340.86 71 299.91 141.48 258.95 212.42 299.9"/><polygon class="cls-142" points="212.42 299.24 141.94 340.2 71 299.24 141.48 258.29 212.42 299.24"/><polygon class="cls-142" points="212.42 298.58 141.94 339.54 71 298.58 141.48 257.63 212.42 298.58"/><polygon class="cls-143" points="212.42 297.92 141.94 338.88 71 297.92 141.48 256.96 212.42 297.92"/><polygon class="cls-143" points="212.42 297.26 141.94 338.22 71 297.26 141.48 256.3 212.42 297.26"/><polygon class="cls-143" points="212.42 296.6 141.94 337.56 71 296.6 141.48 255.64 212.42 296.6"/><polygon class="cls-143" points="212.42 295.94 141.94 336.89 71 295.94 141.48 254.98 212.42 295.94"/><polygon class="cls-143" points="212.42 295.27 141.94 336.23 71 295.27 141.48 254.32 212.42 295.27"/><polygon class="cls-143" points="212.42 294.61 141.94 335.57 71 294.61 141.48 253.65 212.42 294.61"/><polygon class="cls-143" points="212.42 293.95 141.94 334.91 71 293.95 141.48 252.99 212.42 293.95"/><polygon class="cls-143" points="212.42 293.29 141.94 334.25 71 293.29 141.48 252.33 212.42 293.29"/><polygon class="cls-143" points="212.42 292.63 141.94 333.58 71 292.63 141.48 251.67 212.42 292.63"/><polygon class="cls-143" points="212.42 291.96 141.94 332.92 71 291.96 141.48 251.01 212.42 291.96"/><polygon class="cls-144" points="212.42 291.3 141.94 332.26 71 291.3 141.48 250.35 212.42 291.3"/><polygon class="cls-145" points="212.42 290.64 141.94 331.6 71 290.64 141.48 249.68 212.42 290.64"/><polygon class="cls-145" points="212.42 289.98 141.94 330.94 71 289.98 141.48 249.02 212.42 289.98"/><polygon class="cls-145" points="212.42 289.32 141.94 330.28 71 289.32 141.48 248.36 212.42 289.32"/><polygon class="cls-145" points="212.42 288.66 141.94 329.61 71 288.66 141.48 247.7 212.42 288.66"/><polygon class="cls-145" points="212.42 288 141.94 328.95 71 288 141.48 247.04 212.42 288"/><polygon class="cls-145" points="212.42 287.33 141.94 328.29 71 287.33 141.48 246.38 212.42 287.33"/><polygon class="cls-145" points="212.42 286.67 141.94 327.63 71 286.67 141.48 245.71 212.42 286.67"/><polygon class="cls-145" points="212.42 286.01 141.94 326.97 71 286.01 141.48 245.05 212.42 286.01"/><polygon class="cls-145" points="212.42 285.35 141.94 326.31 71 285.35 141.48 244.39 212.42 285.35"/><polygon class="cls-145" points="212.42 284.69 141.94 325.64 71 284.69 141.48 243.73 212.42 284.69"/><polygon class="cls-145" points="212.42 284.02 141.94 324.98 71 284.02 141.48 243.07 212.42 284.02"/><polygon class="cls-146" points="212.42 283.36 141.94 324.32 71 283.36 141.48 242.41 212.42 283.36"/><polygon class="cls-147" points="212.42 282.7 141.94 323.66 71 282.7 141.48 241.74 212.42 282.7"/><polygon class="cls-147" points="212.42 282.04 141.94 323 71 282.04 141.48 241.08 212.42 282.04"/><polygon class="cls-147" points="212.42 281.38 141.94 322.34 71 281.38 141.48 240.42 212.42 281.38"/><polygon class="cls-147" points="212.42 280.72 141.94 321.67 71 280.72 141.48 239.76 212.42 280.72"/><polygon class="cls-147" points="212.42 280.05 141.94 321.01 71 280.06 141.48 239.1 212.42 280.05"/><polygon class="cls-147" points="212.42 279.39 141.94 320.35 71 279.39 141.48 238.44 212.42 279.39"/><polygon class="cls-147" points="212.42 278.73 141.94 319.69 71 278.73 141.48 237.77 212.42 278.73"/><polygon class="cls-147" points="212.42 278.07 141.94 319.03 71 278.07 141.48 237.11 212.42 278.07"/><polygon class="cls-147" points="212.42 277.41 141.94 318.37 71 277.41 141.48 236.45 212.42 277.41"/><polygon class="cls-147" points="212.42 276.75 141.94 317.7 71 276.75 141.48 235.79 212.42 276.75"/><polygon class="cls-148" points="212.42 276.08 141.94 317.04 71 276.08 141.48 235.13 212.42 276.08"/><polygon class="cls-148" points="212.42 275.42 141.94 316.38 71 275.42 141.48 234.47 212.42 275.42"/><polygon class="cls-148" points="212.42 274.76 141.94 315.72 71 274.76 141.48 233.8 212.42 274.76"/><polygon class="cls-148" points="212.42 274.1 141.94 315.06 71 274.1 141.48 233.14 212.42 274.1"/><polygon class="cls-149" points="212.42 273.44 141.94 314.39 71 273.44 141.48 232.48 212.42 273.44"/><polygon class="cls-149" points="212.42 272.78 141.94 313.73 71 272.78 141.48 231.82 212.42 272.78"/><polygon class="cls-149" points="212.42 272.11 141.94 313.07 71 272.12 141.48 231.16 212.42 272.11"/><polygon class="cls-149" points="212.42 271.45 141.94 312.41 71 271.45 141.48 230.5 212.42 271.45"/><polygon class="cls-149" points="212.42 270.79 141.94 311.75 71 270.79 141.48 229.83 212.42 270.79"/><polygon class="cls-149" points="212.42 270.13 141.94 311.09 71 270.13 141.48 229.17 212.42 270.13"/><polygon class="cls-149" points="212.42 269.47 141.94 310.43 71 269.47 141.48 228.51 212.42 269.47"/><polygon class="cls-150" points="212.42 268.81 141.94 309.76 71 268.81 141.48 227.85 212.42 268.81"/><polygon class="cls-150" points="212.42 268.14 141.94 309.1 71 268.14 141.48 227.19 212.42 268.14"/><polygon class="cls-150" points="212.42 267.48 141.94 308.44 71 267.48 141.48 226.53 212.42 267.48"/><polygon class="cls-150" points="212.42 266.82 141.94 307.78 71 266.82 141.48 225.86 212.42 266.82"/><polygon class="cls-150" points="212.42 266.16 141.94 307.12 71 266.16 141.48 225.2 212.42 266.16"/><polygon class="cls-150" points="212.42 265.5 141.94 306.45 71 265.5 141.48 224.54 212.42 265.5"/><polygon class="cls-151" points="212.42 264.83 141.94 305.79 71 264.84 141.48 223.88 212.42 264.83"/><polygon class="cls-151" points="212.42 264.17 141.94 305.13 71 264.17 141.48 223.22 212.42 264.17"/><polygon class="cls-151" points="212.42 263.51 141.94 304.47 71 263.51 141.48 222.56 212.42 263.51"/><polygon class="cls-151" points="212.42 262.85 141.94 303.81 71 262.85 141.48 221.89 212.42 262.85"/><polygon class="cls-151" points="212.42 262.19 141.94 303.15 71 262.19 141.48 221.23 212.42 262.19"/><polygon class="cls-151" points="212.42 261.53 141.94 302.49 71 261.53 141.48 220.57 212.42 261.53"/><polygon class="cls-152" points="212.42 260.87 141.94 301.82 71 260.87 141.48 219.91 212.42 260.87"/><polygon class="cls-152" points="212.42 260.2 141.94 301.16 71 260.2 141.48 219.25 212.42 260.2"/><polygon class="cls-152" points="212.42 259.54 141.94 300.5 71 259.54 141.48 218.59 212.42 259.54"/><polygon class="cls-152" points="212.42 258.88 141.94 299.84 71 258.88 141.48 217.92 212.42 258.88"/><polygon class="cls-152" points="212.42 258.22 141.94 299.18 71 258.22 141.48 217.26 212.42 258.22"/><polygon class="cls-152" points="212.42 257.56 141.94 298.51 71 257.56 141.48 216.6 212.42 257.56"/><polygon class="cls-152" points="212.42 256.89 141.94 297.85 71 256.9 141.48 215.94 212.42 256.89"/><polygon class="cls-153" points="212.42 256.23 141.94 297.19 71 256.23 141.48 215.28 212.42 256.23"/><polygon class="cls-153" points="212.42 255.57 141.94 296.53 71 255.57 141.48 214.62 212.42 255.57"/><polygon class="cls-153" points="212.42 254.91 141.94 295.87 71 254.91 141.48 213.95 212.42 254.91"/><polygon class="cls-153" points="212.42 254.25 141.94 295.21 71 254.25 141.48 213.29 212.42 254.25"/><polygon class="cls-154" points="212.42 253.59 141.94 294.55 71 253.59 141.48 212.63 212.42 253.59"/><polygon class="cls-154" points="212.42 252.93 141.94 293.88 71 252.93 141.48 211.97 212.42 252.93"/><polygon class="cls-154" points="212.42 252.26 141.94 293.22 71 252.26 141.48 211.31 212.42 252.26"/><polygon class="cls-154" points="212.42 251.6 141.94 292.56 71 251.6 141.48 210.64 212.42 251.6"/><polygon class="cls-154" points="212.42 250.94 141.94 291.9 71 250.94 141.48 209.98 212.42 250.94"/><polygon class="cls-154" points="212.42 250.28 141.94 291.24 71 250.28 141.48 209.32 212.42 250.28"/><polygon class="cls-154" points="212.42 249.62 141.94 290.57 71 249.62 141.48 208.66 212.42 249.62"/><polygon class="cls-154" points="212.42 248.96 141.94 289.91 71 248.96 141.48 208 212.42 248.96"/><polygon class="cls-154" points="212.42 248.29 141.94 289.25 71 248.29 141.48 207.34 212.42 248.29"/><polygon class="cls-154" points="212.42 247.63 141.94 288.59 71 247.63 141.48 206.67 212.42 247.63"/><polygon class="cls-155" points="212.42 246.97 141.94 287.93 71 246.97 141.48 206.01 212.42 246.97"/><polygon class="cls-156" points="212.42 246.31 141.94 287.27 71 246.31 141.48 205.35 212.42 246.31"/><polygon class="cls-156" points="212.42 245.65 141.94 286.6 71 245.65 141.48 204.69 212.42 245.65"/><polygon class="cls-156" points="212.42 244.99 141.94 285.94 71 244.99 141.48 204.03 212.42 244.99"/><polygon class="cls-156" points="212.42 244.32 141.94 285.28 71 244.32 141.48 203.37 212.42 244.32"/><polygon class="cls-156" points="212.42 243.66 141.94 284.62 71 243.66 141.48 202.7 212.42 243.66"/><polygon class="cls-156" points="212.42 243 141.94 283.96 71 243 141.48 202.04 212.42 243"/></g><g class="cls-1"><polygon class="cls-2" points="141.42 417 70.94 457.96 0 417 70.48 376.04 141.42 417"/><polygon class="cls-3" points="141.42 416.59 70.94 457.55 0 416.59 70.48 375.63 141.42 416.59"/><polygon class="cls-3" points="141.42 416.18 70.94 457.14 0 416.18 70.48 375.23 141.42 416.18"/><polygon class="cls-4" points="141.42 415.78 70.94 456.73 0 415.78 70.48 374.82 141.42 415.78"/><polygon class="cls-4" points="141.42 415.37 70.94 456.33 0 415.37 70.48 374.41 141.42 415.37"/><polygon class="cls-5" points="141.42 414.96 70.94 455.92 0 414.96 70.48 374 141.42 414.96"/><polygon class="cls-6" points="141.42 414.55 70.94 455.51 0 414.55 70.48 373.6 141.42 414.55"/><polygon class="cls-6" points="141.42 414.14 70.94 455.1 0 414.14 70.48 373.19 141.42 414.14"/><polygon class="cls-7" points="141.42 413.74 70.94 454.69 0 413.74 70.48 372.78 141.42 413.74"/><polygon class="cls-7" points="141.42 413.33 70.94 454.29 0 413.33 70.48 372.37 141.42 413.33"/><polygon class="cls-8" points="141.42 412.92 70.94 453.88 0 412.92 70.48 371.96 141.42 412.92"/><polygon class="cls-9" points="141.42 412.51 70.94 453.47 0 412.51 70.48 371.56 141.42 412.51"/><polygon class="cls-9" points="141.42 412.1 70.94 453.06 0 412.11 70.48 371.15 141.42 412.1"/><polygon class="cls-10" points="141.42 411.7 70.94 452.65 0 411.7 70.48 370.74 141.42 411.7"/><polygon class="cls-10" points="141.42 411.29 70.94 452.25 0 411.29 70.48 370.33 141.42 411.29"/><polygon class="cls-11" points="141.42 410.88 70.94 451.84 0 410.88 70.48 369.92 141.42 410.88"/><polygon class="cls-11" points="141.42 410.47 70.94 451.43 0 410.47 70.48 369.51 141.42 410.47"/><polygon class="cls-12" points="141.42 410.06 70.94 451.02 0 410.06 70.48 369.11 141.42 410.06"/><polygon class="cls-13" points="141.42 409.66 70.94 450.61 0 409.66 70.48 368.7 141.42 409.66"/><polygon class="cls-13" points="141.42 409.25 70.94 450.21 0 409.25 70.48 368.29 141.42 409.25"/><polygon class="cls-14" points="141.42 408.84 70.94 449.8 0 408.84 70.48 367.88 141.42 408.84"/><polygon class="cls-14" points="141.42 408.43 70.94 449.39 0 408.43 70.48 367.48 141.42 408.43"/><polygon class="cls-15" points="141.42 408.02 70.94 448.98 0 408.02 70.48 367.07 141.42 408.02"/><polygon class="cls-16" points="141.42 407.62 70.94 448.57 0 407.62 70.48 366.66 141.42 407.62"/><polygon class="cls-16" points="141.42 407.21 70.94 448.17 0 407.21 70.48 366.25 141.42 407.21"/><polygon class="cls-17" points="141.42 406.8 70.94 447.76 0 406.8 70.48 365.84 141.42 406.8"/><polygon class="cls-17" points="141.42 406.39 70.94 447.35 0 406.39 70.48 365.44 141.42 406.39"/><polygon class="cls-18" points="141.42 405.99 70.94 446.94 0 405.99 70.48 365.03 141.42 405.99"/><polygon class="cls-19" points="141.42 405.58 70.94 446.54 0 405.58 70.48 364.62 141.42 405.58"/><polygon class="cls-19" points="141.42 405.17 70.94 446.13 0 405.17 70.48 364.21 141.42 405.17"/><polygon class="cls-20" points="141.42 404.76 70.94 445.72 0 404.76 70.48 363.8 141.42 404.76"/><polygon class="cls-20" points="141.42 404.35 70.94 445.31 0 404.35 70.48 363.4 141.42 404.35"/><polygon class="cls-21" points="141.42 403.94 70.94 444.9 0 403.95 70.48 362.99 141.42 403.94"/><polygon class="cls-22" points="141.42 403.54 70.94 444.5 0 403.54 70.48 362.58 141.42 403.54"/><polygon class="cls-23" points="141.42 403.13 70.94 444.09 0 403.13 70.48 362.17 141.42 403.13"/><polygon class="cls-24" points="141.42 402.72 70.94 443.68 0 402.72 70.48 361.76 141.42 402.72"/><polygon class="cls-24" points="141.42 402.31 70.94 443.27 0 402.31 70.48 361.36 141.42 402.31"/><polygon class="cls-25" points="141.42 401.9 70.94 442.86 0 401.91 70.48 360.95 141.42 401.9"/><polygon class="cls-25" points="141.42 401.5 70.94 442.45 0 401.5 70.48 360.54 141.42 401.5"/><polygon class="cls-26" points="141.42 401.09 70.94 442.05 0 401.09 70.48 360.13 141.42 401.09"/><polygon class="cls-27" points="141.42 400.68 70.94 441.64 0 400.68 70.48 359.72 141.42 400.68"/><polygon class="cls-27" points="141.42 400.27 70.94 441.23 0 400.27 70.48 359.32 141.42 400.27"/><polygon class="cls-28" points="141.42 399.87 70.94 440.82 0 399.87 70.48 358.91 141.42 399.87"/><polygon class="cls-28" points="141.42 399.46 70.94 440.42 0 399.46 70.48 358.5 141.42 399.46"/><polygon class="cls-29" points="141.42 399.05 70.94 440.01 0 399.05 70.48 358.09 141.42 399.05"/><polygon class="cls-30" points="141.42 398.64 70.94 439.6 0 398.64 70.48 357.68 141.42 398.64"/><polygon class="cls-30" points="141.42 398.23 70.94 439.19 0 398.23 70.48 357.28 141.42 398.23"/><polygon class="cls-31" points="141.42 397.83 70.94 438.78 0 397.83 70.48 356.87 141.42 397.83"/><polygon class="cls-31" points="141.42 397.42 70.94 438.38 0 397.42 70.48 356.46 141.42 397.42"/><polygon class="cls-32" points="141.42 397.01 70.94 437.97 0 397.01 70.48 356.05 141.42 397.01"/><polygon class="cls-33" points="141.42 396.6 70.94 437.56 0 396.6 70.48 355.64 141.42 396.6"/><polygon class="cls-33" points="141.42 396.19 70.94 437.15 0 396.19 70.48 355.24 141.42 396.19"/><polygon class="cls-34" points="141.42 395.79 70.94 436.74 0 395.79 70.48 354.83 141.42 395.79"/><polygon class="cls-34" points="141.42 395.38 70.94 436.34 0 395.38 70.48 354.42 141.42 395.38"/><polygon class="cls-35" points="141.42 394.97 70.94 435.93 0 394.97 70.48 354.01 141.42 394.97"/><polygon class="cls-36" points="141.42 394.56 70.94 435.52 0 394.56 70.48 353.61 141.42 394.56"/><polygon class="cls-36" points="141.42 394.15 70.94 435.11 0 394.15 70.48 353.2 141.42 394.15"/><polygon class="cls-37" points="141.42 393.75 70.94 434.7 0 393.75 70.48 352.79 141.42 393.75"/><polygon class="cls-37" points="141.42 393.34 70.94 434.3 0 393.34 70.48 352.38 141.42 393.34"/><polygon class="cls-38" points="141.42 392.93 70.94 433.89 0 392.93 70.48 351.97 141.42 392.93"/><polygon class="cls-39" points="141.42 392.52 70.94 433.48 0 392.52 70.48 351.56 141.42 392.52"/><polygon class="cls-39" points="141.42 392.11 70.94 433.07 0 392.12 70.48 351.16 141.42 392.11"/><polygon class="cls-40" points="141.42 391.71 70.94 432.66 0 391.71 70.48 350.75 141.42 391.71"/><polygon class="cls-40" points="141.42 391.3 70.94 432.26 0 391.3 70.48 350.34 141.42 391.3"/><polygon class="cls-41" points="141.42 390.89 70.94 431.85 0 390.89 70.48 349.93 141.42 390.89"/><polygon class="cls-41" points="141.42 390.48 70.94 431.44 0 390.48 70.48 349.52 141.42 390.48"/><polygon class="cls-42" points="141.42 390.07 70.94 431.03 0 390.07 70.48 349.12 141.42 390.07"/><polygon class="cls-43" points="141.42 389.67 70.94 430.62 0 389.67 70.48 348.71 141.42 389.67"/><polygon class="cls-43" points="141.42 389.26 70.94 430.22 0 389.26 70.48 348.3 141.42 389.26"/><polygon class="cls-44" points="141.42 388.85 70.94 429.81 0 388.85 70.48 347.89 141.42 388.85"/><polygon class="cls-44" points="141.42 388.44 70.94 429.4 0 388.44 70.48 347.49 141.42 388.44"/><polygon class="cls-45" points="141.42 388.04 70.94 428.99 0 388.04 70.48 347.08 141.42 388.04"/><polygon class="cls-46" points="141.42 387.63 70.94 428.58 0 387.63 70.48 346.67 141.42 387.63"/><polygon class="cls-46" points="141.42 387.22 70.94 428.18 0 387.22 70.48 346.26 141.42 387.22"/><polygon class="cls-47" points="141.42 386.81 70.94 427.77 0 386.81 70.48 345.85 141.42 386.81"/><polygon class="cls-47" points="141.42 386.4 70.94 427.36 0 386.4 70.48 345.44 141.42 386.4"/><polygon class="cls-48" points="141.42 386 70.94 426.95 0 386 70.48 345.04 141.42 386"/><polygon class="cls-49" points="141.42 385.59 70.94 426.55 0 385.59 70.48 344.63 141.42 385.59"/><polygon class="cls-49" points="141.42 385.18 70.94 426.14 0 385.18 70.48 344.22 141.42 385.18"/><polygon class="cls-50" points="141.42 384.77 70.94 425.73 0 384.77 70.48 343.81 141.42 384.77"/><polygon class="cls-50" points="141.42 384.36 70.94 425.32 0 384.36 70.48 343.41 141.42 384.36"/><polygon class="cls-51" points="141.42 383.95 70.94 424.91 0 383.96 70.48 343 141.42 383.95"/><polygon class="cls-52" points="141.42 383.55 70.94 424.5 0 383.55 70.48 342.59 141.42 383.55"/><polygon class="cls-52" points="141.42 383.14 70.94 424.1 0 383.14 70.48 342.18 141.42 383.14"/><polygon class="cls-53" points="141.42 382.73 70.94 423.69 0 382.73 70.48 341.77 141.42 382.73"/><polygon class="cls-53" points="141.42 382.32 70.94 423.28 0 382.32 70.48 341.37 141.42 382.32"/><polygon class="cls-54" points="141.42 381.92 70.94 422.87 0 381.92 70.48 340.96 141.42 381.92"/><polygon class="cls-55" points="141.42 381.51 70.94 422.46 0 381.51 70.48 340.55 141.42 381.51"/><polygon class="cls-55" points="141.42 381.1 70.94 422.06 0 381.1 70.48 340.14 141.42 381.1"/><polygon class="cls-56" points="141.42 380.69 70.94 421.65 0 380.69 70.48 339.73 141.42 380.69"/><polygon class="cls-56" points="141.42 380.28 70.94 421.24 0 380.28 70.48 339.33 141.42 380.28"/><polygon class="cls-57" points="141.42 379.88 70.94 420.83 0 379.88 70.48 338.92 141.42 379.88"/><polygon class="cls-57" points="141.42 379.47 70.94 420.43 0 379.47 70.48 338.51 141.42 379.47"/><polygon class="cls-58" points="141.42 379.06 70.94 420.02 0 379.06 70.48 338.1 141.42 379.06"/><polygon class="cls-59" points="141.42 378.65 70.94 419.61 0 378.65 70.48 337.69 141.42 378.65"/><polygon class="cls-59" points="141.42 378.24 70.94 419.2 0 378.24 70.48 337.29 141.42 378.24"/><polygon class="cls-60" points="141.42 377.83 70.94 418.79 0 377.84 70.48 336.88 141.42 377.83"/><polygon class="cls-60" points="141.42 377.43 70.94 418.38 0 377.43 70.48 336.47 141.42 377.43"/><polygon class="cls-61" points="141.42 377.02 70.94 417.98 0 377.02 70.48 336.06 141.42 377.02"/><polygon class="cls-62" points="141.42 376.61 70.94 417.57 0 376.61 70.48 335.65 141.42 376.61"/><polygon class="cls-62" points="141.42 376.2 70.94 417.16 0 376.2 70.48 335.25 141.42 376.2"/><polygon class="cls-63" points="141.42 375.8 70.94 416.75 0 375.8 70.48 334.84 141.42 375.8"/><polygon class="cls-63" points="141.42 375.39 70.94 416.35 0 375.39 70.48 334.43 141.42 375.39"/><polygon class="cls-64" points="141.42 374.98 70.94 415.94 0 374.98 70.48 334.02 141.42 374.98"/><polygon class="cls-65" points="141.42 374.57 70.94 415.53 0 374.57 70.48 333.62 141.42 374.57"/><polygon class="cls-65" points="141.42 374.16 70.94 415.12 0 374.17 70.48 333.21 141.42 374.16"/><polygon class="cls-66" points="141.42 373.76 70.94 414.71 0 373.76 70.48 332.8 141.42 373.76"/><polygon class="cls-66" points="141.42 373.35 70.94 414.31 0 373.35 70.48 332.39 141.42 373.35"/><polygon class="cls-67" points="141.42 372.94 70.94 413.9 0 372.94 70.48 331.98 141.42 372.94"/><polygon class="cls-68" points="141.42 372.53 70.94 413.49 0 372.53 70.48 331.57 141.42 372.53"/><polygon class="cls-68" points="141.42 372.12 70.94 413.08 0 372.13 70.48 331.17 141.42 372.12"/><polygon class="cls-69" points="141.42 371.72 70.94 412.67 0 371.72 70.48 330.76 141.42 371.72"/><polygon class="cls-69" points="141.42 371.31 70.94 412.27 0 371.31 70.48 330.35 141.42 371.31"/><polygon class="cls-70" points="141.42 370.9 70.94 411.86 0 370.9 70.48 329.94 141.42 370.9"/><polygon class="cls-70" points="141.42 370.49 70.94 411.45 0 370.49 70.48 329.54 141.42 370.49"/><polygon class="cls-71" points="141.42 370.08 70.94 411.04 0 370.08 70.48 329.13 141.42 370.08"/><polygon class="cls-72" points="141.42 369.68 70.94 410.63 0 369.68 70.48 328.72 141.42 369.68"/><polygon class="cls-72" points="141.42 369.27 70.94 410.23 0 369.27 70.48 328.31 141.42 369.27"/><polygon class="cls-73" points="141.42 368.86 70.94 409.82 0 368.86 70.48 327.9 141.42 368.86"/><polygon class="cls-73" points="141.42 368.45 70.94 409.41 0 368.45 70.48 327.5 141.42 368.45"/><polygon class="cls-74" points="141.42 368.04 70.94 409 0 368.05 70.48 327.09 141.42 368.04"/><polygon class="cls-75" points="141.42 367.64 70.94 408.59 0 367.64 70.48 326.68 141.42 367.64"/><polygon class="cls-75" points="141.42 367.23 70.94 408.19 0 367.23 70.48 326.27 141.42 367.23"/><polygon class="cls-76" points="141.42 366.82 70.94 407.78 0 366.82 70.48 325.86 141.42 366.82"/><polygon class="cls-76" points="141.42 366.41 70.94 407.37 0 366.41 70.48 325.45 141.42 366.41"/><polygon class="cls-77" points="141.42 366 70.94 406.96 0 366 70.48 325.05 141.42 366"/><polygon class="cls-78" points="141.42 365.6 70.94 406.56 0 365.6 70.48 324.64 141.42 365.6"/><polygon class="cls-78" points="141.42 365.19 70.94 406.15 0 365.19 70.48 324.23 141.42 365.19"/><polygon class="cls-79" points="141.42 364.78 70.94 405.74 0 364.78 70.48 323.82 141.42 364.78"/><polygon class="cls-79" points="141.42 364.37 70.94 405.33 0 364.37 70.48 323.42 141.42 364.37"/><polygon class="cls-80" points="141.42 363.96 70.94 404.92 0 363.96 70.48 323.01 141.42 363.96"/><polygon class="cls-81" points="141.42 363.56 70.94 404.51 0 363.56 70.48 322.6 141.42 363.56"/><polygon class="cls-81" points="141.42 363.15 70.94 404.11 0 363.15 70.48 322.19 141.42 363.15"/><polygon class="cls-82" points="141.42 362.74 70.94 403.7 0 362.74 70.48 321.78 141.42 362.74"/><polygon class="cls-82" points="141.42 362.33 70.94 403.29 0 362.33 70.48 321.38 141.42 362.33"/><polygon class="cls-83" points="141.42 361.93 70.94 402.88 0 361.93 70.48 320.97 141.42 361.93"/><polygon class="cls-84" points="141.42 361.52 70.94 402.48 0 361.52 70.48 320.56 141.42 361.52"/><polygon class="cls-84" points="141.42 361.11 70.94 402.07 0 361.11 70.48 320.15 141.42 361.11"/><polygon class="cls-85" points="141.42 360.7 70.94 401.66 0 360.7 70.48 319.74 141.42 360.7"/><polygon class="cls-85" points="141.42 360.29 70.94 401.25 0 360.29 70.48 319.34 141.42 360.29"/><polygon class="cls-86" points="141.42 359.88 70.94 400.84 0 359.89 70.48 318.93 141.42 359.88"/><polygon class="cls-86" points="141.42 359.48 70.94 400.44 0 359.48 70.48 318.52 141.42 359.48"/><polygon class="cls-87" points="141.42 359.07 70.94 400.03 0 359.07 70.48 318.11 141.42 359.07"/><polygon class="cls-88" points="141.42 358.66 70.94 399.62 0 358.66 70.48 317.7 141.42 358.66"/><polygon class="cls-88" points="141.42 358.25 70.94 399.21 0 358.25 70.48 317.3 141.42 358.25"/><polygon class="cls-89" points="141.42 357.85 70.94 398.8 0 357.85 70.48 316.89 141.42 357.85"/><polygon class="cls-89" points="141.42 357.44 70.94 398.39 0 357.44 70.48 316.48 141.42 357.44"/><polygon class="cls-90" points="141.42 357.03 70.94 397.99 0 357.03 70.48 316.07 141.42 357.03"/><polygon class="cls-91" points="141.42 356.62 70.94 397.58 0 356.62 70.48 315.66 141.42 356.62"/><polygon class="cls-91" points="141.42 356.21 70.94 397.17 0 356.21 70.48 315.26 141.42 356.21"/><polygon class="cls-92" points="141.42 355.81 70.94 396.76 0 355.81 70.48 314.85 141.42 355.81"/><polygon class="cls-92" points="141.42 355.4 70.94 396.36 0 355.4 70.48 314.44 141.42 355.4"/><polygon class="cls-93" points="141.42 354.99 70.94 395.95 0 354.99 70.48 314.03 141.42 354.99"/><polygon class="cls-94" points="141.42 354.58 70.94 395.54 0 354.58 70.48 313.63 141.42 354.58"/><polygon class="cls-94" points="141.42 354.17 70.94 395.13 0 354.17 70.48 313.22 141.42 354.17"/><polygon class="cls-95" points="141.42 353.77 70.94 394.72 0 353.77 70.48 312.81 141.42 353.77"/><polygon class="cls-95" points="141.42 353.36 70.94 394.32 0 353.36 70.48 312.4 141.42 353.36"/><polygon class="cls-96" points="141.42 352.95 70.94 393.91 0 352.95 70.48 311.99 141.42 352.95"/><polygon class="cls-97" points="141.42 352.54 70.94 393.5 0 352.54 70.48 311.58 141.42 352.54"/><polygon class="cls-97" points="141.42 352.13 70.94 393.09 0 352.13 70.48 311.18 141.42 352.13"/><polygon class="cls-98" points="141.42 351.73 70.94 392.68 0 351.73 70.48 310.77 141.42 351.73"/><polygon class="cls-98" points="141.42 351.32 70.94 392.28 0 351.32 70.48 310.36 141.42 351.32"/><polygon class="cls-99" points="141.42 350.91 70.94 391.87 0 350.91 70.48 309.95 141.42 350.91"/><polygon class="cls-100" points="141.42 350.5 70.94 391.46 0 350.5 70.48 309.55 141.42 350.5"/><polygon class="cls-100" points="141.42 350.09 70.94 391.05 0 350.1 70.48 309.14 141.42 350.09"/><polygon class="cls-101" points="141.42 349.69 70.94 390.64 0 349.69 70.48 308.73 141.42 349.69"/><polygon class="cls-101" points="141.42 349.28 70.94 390.24 0 349.28 70.48 308.32 141.42 349.28"/><polygon class="cls-102" points="141.42 348.87 70.94 389.83 0 348.87 70.48 307.91 141.42 348.87"/><polygon class="cls-103" points="141.42 348.46 70.94 389.42 0 348.46 70.48 307.5 141.42 348.46"/><polygon class="cls-104" points="141.42 348.05 70.94 389.01 0 348.06 70.48 307.1 141.42 348.05"/><polygon class="cls-105" points="141.42 347.65 70.94 388.6 0 347.65 70.48 306.69 141.42 347.65"/><polygon class="cls-105" points="141.42 347.24 70.94 388.2 0 347.24 70.48 306.28 141.42 347.24"/><polygon class="cls-106" points="141.42 346.83 70.94 387.79 0 346.83 70.48 305.87 141.42 346.83"/><polygon class="cls-106" points="141.42 346.42 70.94 387.38 0 346.42 70.48 305.46 141.42 346.42"/><polygon class="cls-107" points="141.42 346.01 70.94 386.97 0 346.01 70.48 305.06 141.42 346.01"/><polygon class="cls-108" points="141.42 345.61 70.94 386.56 0 345.61 70.48 304.65 141.42 345.61"/><polygon class="cls-108" points="141.42 345.2 70.94 386.16 0 345.2 70.48 304.24 141.42 345.2"/><polygon class="cls-109" points="141.42 344.79 70.94 385.75 0 344.79 70.48 303.83 141.42 344.79"/><polygon class="cls-109" points="141.42 344.38 70.94 385.34 0 344.38 70.48 303.43 141.42 344.38"/><polygon class="cls-110" points="141.42 343.98 70.94 384.93 0 343.98 70.48 303.02 141.42 343.98"/><polygon class="cls-111" points="141.42 343.57 70.94 384.52 0 343.57 70.48 302.61 141.42 343.57"/><polygon class="cls-111" points="141.42 343.16 70.94 384.12 0 343.16 70.48 302.2 141.42 343.16"/><polygon class="cls-112" points="141.42 342.75 70.94 383.71 0 342.75 70.48 301.79 141.42 342.75"/><polygon class="cls-112" points="141.42 342.34 70.94 383.3 0 342.34 70.48 301.39 141.42 342.34"/><polygon class="cls-113" points="141.42 341.94 70.94 382.89 0 341.94 70.48 300.98 141.42 341.94"/><polygon class="cls-114" points="141.42 341.53 70.94 382.49 0 341.53 70.48 300.57 141.42 341.53"/><polygon class="cls-114" points="141.42 341.12 70.94 382.08 0 341.12 70.48 300.16 141.42 341.12"/><polygon class="cls-115" points="141.42 340.71 70.94 381.67 0 340.71 70.48 299.75 141.42 340.71"/><polygon class="cls-115" points="141.42 340.3 70.94 381.26 0 340.3 70.48 299.35 141.42 340.3"/><polygon class="cls-116" points="141.42 339.89 70.94 380.85 0 339.9 70.48 298.94 141.42 339.89"/><polygon class="cls-116" points="141.42 339.49 70.94 380.44 0 339.49 70.48 298.53 141.42 339.49"/><polygon class="cls-117" points="141.42 339.08 70.94 380.04 0 339.08 70.48 298.12 141.42 339.08"/><polygon class="cls-118" points="141.42 338.67 70.94 379.63 0 338.67 70.48 297.71 141.42 338.67"/><polygon class="cls-118" points="141.42 338.26 70.94 379.22 0 338.26 70.48 297.31 141.42 338.26"/><polygon class="cls-119" points="141.42 337.86 70.94 378.81 0 337.86 70.48 296.9 141.42 337.86"/><polygon class="cls-119" points="141.42 337.45 70.94 378.4 0 337.45 70.48 296.49 141.42 337.45"/><polygon class="cls-120" points="141.42 337.04 70.94 378 0 337.04 70.48 296.08 141.42 337.04"/><polygon class="cls-121" points="141.42 336.63 70.94 377.59 0 336.63 70.48 295.67 141.42 336.63"/><polygon class="cls-121" points="141.42 336.22 70.94 377.18 0 336.22 70.48 295.27 141.42 336.22"/><polygon class="cls-122" points="141.42 335.82 70.94 376.77 0 335.82 70.48 294.86 141.42 335.82"/><polygon class="cls-122" points="141.42 335.41 70.94 376.37 0 335.41 70.48 294.45 141.42 335.41"/><polygon class="cls-123" points="141.42 335 70.94 375.96 0 335 70.48 294.04 141.42 335"/></g><polygon class="cls-157" points="108.71 141 70.83 163.01 32.71 141 70.59 118.99 108.71 141"/><polygon class="cls-158" points="32.85 140.78 8.71 0 133.71 0 108.01 140.78 32.85 140.78"/><polygon class="cls-157" points="178.71 241 140.83 263.01 102.71 241 140.59 218.99 178.71 241"/><polygon class="cls-159" points="102.85 240.78 78.71 119 203.71 119 178.01 240.78 102.85 240.78"/><polygon class="cls-157" points="107.71 333 69.83 355.01 31.71 333 69.59 310.99 107.71 333"/></g></g></svg>