<svg xmlns="http://www.w3.org/2000/svg" xmlns:xlink="http://www.w3.org/1999/xlink" viewBox="0 0 141.5 141.5"><defs><style>.cls-1{fill:url(#linear-gradient);}</style><linearGradient id="linear-gradient" y1="70.75" x2="141.5" y2="70.75" gradientUnits="userSpaceOnUse"><stop offset="0" stop-color="#23bcba"/><stop offset="1" stop-color="#45e994"/></linearGradient></defs><title>Asset 7</title><g id="Layer_2" data-name="Layer 2"><g id="Layer_1-2" data-name="Layer 1"><g id="Logo"><g id="Shape"><path class="cls-1" d="M134.5,30.5H111V7a7,7,0,0,0-7-7H7A7,7,0,0,0,0,7v97a7,7,0,0,0,7,7H30.5v6h.08a5.47,5.47,0,0,0-.08,1v16.5a7,7,0,0,0,7,7h97a7,7,0,0,0,7-7v-97A7,7,0,0,0,134.5,30.5Zm-104,7V90a5.47,5.47,0,0,0,.08,1H30.5v6H21a7,7,0,0,1-7-7V21a7,7,0,0,1,7-7H90a7,7,0,0,1,7,7v9.5H37.5A7,7,0,0,0,30.5,37.5Zm21,90a7,7,0,0,1-7-7V118a5.47,5.47,0,0,0-.08-1h.08v-6a7.37,7.37,0,0,0,.82,0H75.11L91.6,127.5Zm76,0H111.36c-.13-.15-.26-.3-.41-.45l-28-28a7,7,0,0,0-5-2H45a4.19,4.19,0,0,0-.5,0V91h-.08a5.47,5.47,0,0,0,.08-1V51.5a7,7,0,0,1,7-7H97.08a5.55,5.55,0,0,0-.08,1v33a7,7,0,0,0,2,5l12,12,16,16c.15.15.3.28.45.41Zm0-35.4L111,75.61V45.82a7.2,7.2,0,0,0-.12-1.32h9.62a7,7,0,0,1,7,7Z"/></g></g></g></g></svg>