<svg xmlns="http://www.w3.org/2000/svg" xmlns:xlink="http://www.w3.org/1999/xlink" viewBox="0 0 179.38 201.2"><defs><style>.cls-1{fill:none;}.cls-2{fill:url(#linear-gradient);}</style><linearGradient id="linear-gradient" x1="7.44" y1="70.75" x2="148.94" y2="70.75" gradientUnits="userSpaceOnUse"><stop offset="0" stop-color="#23bcba"/><stop offset="1" stop-color="#45e994"/></linearGradient></defs><title>Asset 5</title><g id="Layer_2" data-name="Layer 2"><g id="Layer_1-2" data-name="Layer 1"><g id="Logo"><g id="Exchained"><path id="e" d="M15.67,184.11a6.57,6.57,0,0,1-2.23,4.82,7.08,7.08,0,0,1-4.88,2.19H6c.13.26,1,.48,2.77.63a2,2,0,0,1,.8.62,3.32,3.32,0,0,1,.66.9,2,2,0,0,1,.15.8,2.28,2.28,0,0,1-1.8,2.4,2.68,2.68,0,0,1-.71.07,7.33,7.33,0,0,1-6.54-3.44A6.89,6.89,0,0,1,0,189.5v-7.12a6.67,6.67,0,0,1,2.23-4.85,6.82,6.82,0,0,1,4.88-2.19H8.56a6.68,6.68,0,0,1,5,2.47,6.77,6.77,0,0,1,2.06,4.54Zm-4.9,0v-1.78A2,2,0,0,0,10,181a2.21,2.21,0,0,0-1.42-.72H7.11a2.2,2.2,0,0,0-1.43.74,2,2,0,0,0-.78,1.38v3.86H8.68a2.08,2.08,0,0,0,1.32-.78A2.12,2.12,0,0,0,10.77,184.1Z"/><path id="x" d="M35.08,188.63a2.5,2.5,0,0,1-.76,1.71,2.31,2.31,0,0,1-1.67.82c-.65,0-1.62-.61-2.92-1.82l-2.54-2.63L24.5,189.4a6.91,6.91,0,0,1-2.17,1.72,3.6,3.6,0,0,1-.49,0,2.57,2.57,0,0,1-2.5-1.83,1.43,1.43,0,0,1-.11-.6q0-1,1.77-2.76c1.66-1.62,2.56-2.54,2.68-2.73q-1.42-1.35-3.93-4a2,2,0,0,1-.41-1.26,2.54,2.54,0,0,1,1.87-2.52,1.68,1.68,0,0,1,.56-.11A4.5,4.5,0,0,1,24.61,177l2.62,2.78,2.64-2.75c1.12-1.14,2-1.71,2.68-1.71a2.26,2.26,0,0,1,1.75.85,2.79,2.79,0,0,1,.74,1.89,1.58,1.58,0,0,1-.44,1.15q-1.73,1.68-3.93,4,1.16,1.23,3.22,3.27A3.32,3.32,0,0,1,35.08,188.63Z"/><path id="c" d="M52.29,191.16H45.63a6.65,6.65,0,0,1-4.78-2.22,6.74,6.74,0,0,1-2.21-4.81V182.4a6.67,6.67,0,0,1,2.23-4.86,6.81,6.81,0,0,1,4.88-2.2h6.43a2.32,2.32,0,0,1,2.13,2.48,2.34,2.34,0,0,1-2,2.42H45.63a3,3,0,0,0-2.09,2.09v1.79a2.18,2.18,0,0,0,.77,1.36,2.08,2.08,0,0,0,1.32.78h6.66a2.5,2.5,0,0,1,0,4.9Z"/><path id="h" d="M73.54,189.13a2.49,2.49,0,0,1-4.9,0v-6.77a2.8,2.8,0,0,0-2.11-2.11H64.84a2.87,2.87,0,0,0-2.07,2.06v6.79a2.43,2.43,0,0,1-2.49,2.07,2.38,2.38,0,0,1-2.41-2.06V166.58a2.3,2.3,0,0,1,2.41-2,2.35,2.35,0,0,1,2.49,2.13v9.2a8,8,0,0,1,2.06-.56h1.69a7.67,7.67,0,0,1,7,7Z"/><path id="a" d="M92.76,189.1a1.51,1.51,0,0,1-.26.67,2.47,2.47,0,0,1-2.17,1.39,2.36,2.36,0,0,1-1.75-.83,7.2,7.2,0,0,1-2.81.83H84.09a7.62,7.62,0,0,1-7-7V182.4a6.7,6.7,0,0,1,2.22-4.86,6.81,6.81,0,0,1,4.88-2.2h1.46a7.82,7.82,0,0,1,7.1,7Zm-4.89-5v-1.79a2,2,0,0,0-.79-1.37,2.24,2.24,0,0,0-1.42-.72H84.2a2.18,2.18,0,0,0-1.42.74,2.08,2.08,0,0,0-.79,1.39v1.75a2.18,2.18,0,0,0,.77,1.36,2.08,2.08,0,0,0,1.33.78h1.68a2.08,2.08,0,0,0,1.33-.78A2.18,2.18,0,0,0,87.87,184.12Z"/><g id="i"><path d="M101.22,189a1.91,1.91,0,0,1-.8,1.48,2.61,2.61,0,0,1-1.67.66,2.64,2.64,0,0,1-1.62-.62,1.76,1.76,0,0,1-.81-1.41V177.44a1.76,1.76,0,0,1,.81-1.41,2.64,2.64,0,0,1,1.62-.62,2.69,2.69,0,0,1,1.67.64,1.87,1.87,0,0,1,.8,1.5Z"/><circle cx="98.42" cy="171.14" r="2.49"/></g><path id="n" d="M120.45,189.13a2.49,2.49,0,0,1-4.9,0v-6.77a2.11,2.11,0,0,0-.75-1.36,2.07,2.07,0,0,0-1.34-.75h-1.69a2.11,2.11,0,0,0-1.32.75,2.05,2.05,0,0,0-.77,1.33v6.8a2.49,2.49,0,0,1-4.9,0V177.4a1.63,1.63,0,0,1,.26-.71,2.47,2.47,0,0,1,2.17-1.35,2.5,2.5,0,0,1,1.8.82,6.63,6.63,0,0,1,2.76-.82h1.69a6.65,6.65,0,0,1,4.78,2.22,6.72,6.72,0,0,1,2.21,4.8Z"/><path d="M140.93,185.33a7.26,7.26,0,0,1-2.37,5.19,7.17,7.17,0,0,1-5.16,2.4h-2.57a5.38,5.38,0,0,0-.69.2,1.28,1.28,0,0,0-.84,1.27,1.48,1.48,0,0,0,1.17,1.52h8.29a2.55,2.55,0,0,1,2.17,2.66,2.58,2.58,0,0,1-2.18,2.63H130a6.91,6.91,0,0,1-5.94-5.95v-1.74a5.52,5.52,0,0,1,.6-2,4.85,4.85,0,0,1,1.13-1.74,5.89,5.89,0,0,1-1.15-2.08,7.44,7.44,0,0,1-.58-2.37v-1.86a7.25,7.25,0,0,1,2.39-5.24,7.37,7.37,0,0,1,5.26-2.37h6.93a2,2,0,0,1,1.17.45,2.71,2.71,0,0,1,1.17,2.23,2.39,2.39,0,0,1-.85,1.91,7.26,7.26,0,0,1,.85,3Zm-5.29,0v-1.93a2.12,2.12,0,0,0-.85-1.48,2.38,2.38,0,0,0-1.53-.79h-1.58a2.35,2.35,0,0,0-1.53.81,2.17,2.17,0,0,0-.85,1.5v1.89a2.29,2.29,0,0,0,.83,1.46,2.23,2.23,0,0,0,1.43.85h1.82a2.23,2.23,0,0,0,1.43-.85A2.33,2.33,0,0,0,135.64,185.32Z"/><path id="e-2" data-name="e" d="M160.16,184.11a6.57,6.57,0,0,1-2.23,4.82,7.08,7.08,0,0,1-4.88,2.19h-2.58c.13.26,1.05.48,2.77.63a2,2,0,0,1,.8.62,3.32,3.32,0,0,1,.66.9,2,2,0,0,1,.15.8,2.28,2.28,0,0,1-1.8,2.4,2.68,2.68,0,0,1-.71.07,7.33,7.33,0,0,1-6.54-3.44,6.89,6.89,0,0,1-1.31-3.6v-7.12a6.69,6.69,0,0,1,2.22-4.85,6.85,6.85,0,0,1,4.88-2.19h1.46a6.68,6.68,0,0,1,5,2.47,6.77,6.77,0,0,1,2.06,4.54Zm-4.9,0v-1.78a2,2,0,0,0-.79-1.36,2.21,2.21,0,0,0-1.42-.72h-1.46a2.2,2.2,0,0,0-1.42.74,2,2,0,0,0-.78,1.38v3.86h3.78a2.08,2.08,0,0,0,1.32-.78A2.12,2.12,0,0,0,155.26,184.1Z"/><path id="d" d="M179.38,189a2,2,0,0,1-.52,1.18,2.49,2.49,0,0,1-1,.82,2.63,2.63,0,0,1-.88.17,2.48,2.48,0,0,1-1.79-.83,7.2,7.2,0,0,1-2.81.83h-1.68a7.62,7.62,0,0,1-7-7V182.4a6.76,6.76,0,0,1,2.19-4.84,6.66,6.66,0,0,1,4.82-2.22h1.69a5.19,5.19,0,0,1,2.07.56v-9.2a2.34,2.34,0,0,1,2.46-2.13,2.31,2.31,0,0,1,2.43,2.13Zm-4.89-4.87v-1.79a2,2,0,0,0-.79-1.37,2.24,2.24,0,0,0-1.42-.72h-1.46a2.18,2.18,0,0,0-1.42.74,2.06,2.06,0,0,0-.78,1.39v1.75a2.15,2.15,0,0,0,.76,1.36,2.1,2.1,0,0,0,1.33.78h1.68a2.08,2.08,0,0,0,1.33-.78A2.18,2.18,0,0,0,174.49,184.12Z"/></g><g id="Shape"><path class="cls-1" d="M99,127.5H58.94a7,7,0,0,1-7-7V111H82.55Z"/><path class="cls-1" d="M134.94,51.5V92.1L118.45,75.61V44.5h9.5A7,7,0,0,1,134.94,51.5Z"/><path class="cls-1" d="M134.94,111.86v8.64a7,7,0,0,1-7,7H118.8c-.13-.15-.26-.3-.41-.45l-16-16h16.1V95.4l16.05,16C134.64,111.6,134.79,111.73,134.94,111.86Z"/><path class="cls-1" d="M104.44,44.5V97H51.94V51.5a7,7,0,0,1,7-7Z"/><path class="cls-1" d="M104.44,21v9.5H37.94V97h-9.5a7,7,0,0,1-7-7V21a7,7,0,0,1,7-7h69A7,7,0,0,1,104.44,21Z"/><path class="cls-2" d="M141.94,30.5h-23.5V7a7,7,0,0,0-7-7h-97a7,7,0,0,0-7,7v97a7,7,0,0,0,7,7h23.5v6H38a5.47,5.47,0,0,0-.08,1v16.5a7,7,0,0,0,7,7h97a7,7,0,0,0,7-7v-97A7,7,0,0,0,141.94,30.5Zm-104,7V90A5.47,5.47,0,0,0,38,91h-.08v6h-9.5a7,7,0,0,1-7-7V21a7,7,0,0,1,7-7h69a7,7,0,0,1,7,7v9.5H44.94A7,7,0,0,0,37.94,37.5Zm21,90a7,7,0,0,1-7-7V118a5.47,5.47,0,0,0-.08-1h.08v-6a7.37,7.37,0,0,0,.82,0H82.55L99,127.5Zm76,0H118.8c-.13-.15-.26-.3-.41-.45l-28-28a7,7,0,0,0-5-2h-33a4.19,4.19,0,0,0-.5,0V91h-.08a5.47,5.47,0,0,0,.08-1V51.5a7,7,0,0,1,7-7h45.58a5.55,5.55,0,0,0-.08,1v33a7,7,0,0,0,2,5l12,12,16.05,16c.15.15.3.28.45.41Zm0-35.4L118.45,75.61V45.82a7.2,7.2,0,0,0-.12-1.32h9.62a7,7,0,0,1,7,7Z"/></g></g></g></g></svg>