<svg xmlns="http://www.w3.org/2000/svg" xmlns:xlink="http://www.w3.org/1999/xlink" viewBox="0 0 494.19 570.18"><defs><style>.cls-1{opacity:0.2;fill:url(#linear-gradient);}.cls-2{isolation:isolate;}.cls-3{fill:#0048da;}.cls-4{fill:#0049da;}.cls-5{fill:#0049db;}.cls-6{fill:#004adb;}.cls-7{fill:#004bdb;}.cls-8{fill:#004cdb;}.cls-9{fill:#004cdc;}.cls-10{fill:#004ddc;}.cls-11{fill:#004edc;}.cls-12{fill:#004fdd;}.cls-13{fill:#0050dd;}.cls-14{fill:#0051dd;}.cls-15{fill:#0051de;}.cls-16{fill:#0052de;}.cls-17{fill:#0152de;}.cls-18{fill:#0153de;}.cls-19{fill:#0154df;}.cls-20{fill:#0155df;}.cls-21{fill:#0156df;}.cls-22{fill:#0156e0;}.cls-23{fill:#0157e0;}.cls-24{fill:#0158e0;}.cls-25{fill:#0159e0;}.cls-26{fill:#0159e1;}.cls-27{fill:#015ae1;}.cls-28{fill:#015be1;}.cls-29{fill:#015be2;}.cls-30{fill:#015ce2;}.cls-31{fill:#015de2;}.cls-32{fill:#015ee2;}.cls-33{fill:#015ee3;}.cls-34{fill:#015fe3;}.cls-35{fill:#0160e3;}.cls-36{fill:#0160e4;}.cls-37{fill:#0161e4;}.cls-38{fill:#0162e4;}.cls-39{fill:#0163e4;}.cls-40{fill:#0163e5;}.cls-41{fill:#0164e5;}.cls-42{fill:#0165e5;}.cls-43{fill:#0166e6;}.cls-44{fill:#0167e6;}.cls-45{fill:#0267e6;}.cls-46{fill:#0268e6;}.cls-47{fill:#0268e7;}.cls-48{fill:#0269e7;}.cls-49{fill:#026ae7;}.cls-50{fill:#026be8;}.cls-51{fill:#026ce8;}.cls-52{fill:#026de8;}.cls-53{fill:#026de9;}.cls-54{fill:#026ee9;}.cls-55{fill:#026fe9;}.cls-56{fill:#0270e9;}.cls-57{fill:#0270ea;}.cls-58{fill:#0271ea;}.cls-59{fill:#fff;}.cls-60{fill:#038cfc;}.cls-61{fill:#038dfc;}.cls-62{fill:#038efc;}.cls-63{fill:#038ffc;}.cls-64{fill:#0390fc;}.cls-65{fill:#0391fc;}.cls-66{fill:#0392fc;}.cls-67{fill:#0393fc;}.cls-68{fill:#0394fc;}.cls-69{fill:#0395fc;}.cls-70{fill:#0396fc;}.cls-71{fill:#0397fc;}.cls-72{fill:#0398fc;}.cls-73{fill:#0399fc;}.cls-74{fill:#039afc;}.cls-75{fill:#039bfc;}.cls-76{fill:#039cfc;}.cls-77{fill:#039dfc;}.cls-78{fill:#039efc;}.cls-79{fill:#029efd;}.cls-80{fill:#029ffd;}.cls-81{fill:#02a0fd;}.cls-82{fill:#02a1fd;}.cls-83{fill:#02a2fd;}.cls-84{fill:#02a3fd;}.cls-85{fill:#02a4fd;}.cls-86{fill:#02a5fd;}.cls-87{fill:#02a6fd;}.cls-88{fill:#02a7fd;}.cls-89{fill:#02a8fd;}.cls-90{fill:#02a9fd;}.cls-91{fill:#02aafd;}.cls-92{fill:#02abfd;}.cls-93{fill:#02acfd;}.cls-94{fill:#02adfd;}.cls-95{fill:#02aefd;}.cls-96{fill:#02affd;}.cls-97{fill:#02b0fd;}.cls-98{fill:#02b1fd;}.cls-99{fill:#02b2fd;}.cls-100{fill:#02b3fd;}.cls-101{fill:#02b4fd;}.cls-102{fill:#02b5fd;}.cls-103{fill:#02b6fd;}.cls-104{fill:#02b7fd;}.cls-105{fill:#02b8fd;}.cls-106{fill:#02b9fd;}.cls-107{fill:#02bafd;}.cls-108{fill:#02bbfd;}.cls-109{fill:#02bcfd;}.cls-110{fill:#02bdfd;}.cls-111{fill:#02befd;}.cls-112{fill:#02bffd;}.cls-113{fill:#02c0fd;}.cls-114{fill:#02c1fd;}.cls-115{fill:#01c2fe;}.cls-116{fill:#01c3fe;}.cls-117{fill:#01c4fe;}.cls-118{fill:#01c5fe;}.cls-119{fill:#01c6fe;}.cls-120{fill:#01c7fe;}.cls-121{fill:#01c8fe;}.cls-122{fill:#01c9fe;}.cls-123{fill:#01cafe;}.cls-124{fill:#01cbfe;}.cls-125{fill:#01ccfe;}.cls-126{fill:#01cdfe;}.cls-127{fill:#01cefe;}.cls-128{fill:#01cffe;}.cls-129{fill:#01d0fe;}.cls-130{fill:#01d1fe;}.cls-131{fill:#01d2fe;}.cls-132{fill:#01d3fe;}.cls-133{fill:#01d4fe;}.cls-134{fill:#01d5fe;}.cls-135{fill:#01d6fe;}.cls-136{fill:#01d7fe;}.cls-137{fill:#01d8fe;}.cls-138{fill:#01d9fe;}.cls-139{fill:#01dafe;}.cls-140{fill:#01dbfe;}.cls-141{fill:#01dcfe;}.cls-142{fill:#01ddfe;}.cls-143{fill:#01defe;}.cls-144{fill:#01dffe;}.cls-145{fill:#01e0fe;}.cls-146{fill:#01e1fe;}.cls-147{fill:#01e2fe;}.cls-148{fill:#01e3fe;}.cls-149{fill:#01e4fe;}.cls-150{fill:#01e5fe;}.cls-151{fill:#00e5ff;}.cls-152{fill:#00e6ff;}.cls-153{fill:#00e7ff;}.cls-154{fill:#00e8ff;}.cls-155{fill:#00e9ff;}.cls-156{fill:#00eaff;}.cls-157{fill:#00ebff;}.cls-158{fill:#00ecff;}.cls-159{fill:#00edff;}.cls-160{fill:#0ef;}.cls-161{fill:#00efff;}.cls-162{fill:#00f0ff;}.cls-163{fill:#00f1ff;}.cls-164{fill:#00f2ff;}.cls-165{fill:#00f3ff;}.cls-166{fill:#00f4ff;}.cls-167{fill:#00f5ff;}.cls-168{fill:#00f6ff;}.cls-169{fill:#00f7ff;}.cls-170{fill:none;stroke:#fff;stroke-linecap:round;stroke-linejoin:round;stroke-width:10px;}</style><linearGradient id="linear-gradient" x1="247.1" y1="570.18" x2="247.1" gradientUnits="userSpaceOnUse"><stop offset="0" stop-color="#1b2ff9"/><stop offset="1" stop-color="#1626cc"/></linearGradient></defs><title>Asset 14</title><g id="Layer_2" data-name="Layer 2"><g id="Layer_1-2" data-name="Layer 1"><polygon class="cls-1" points="246.69 0 0.81 142.9 0 427.29 247.5 570.18 493.39 427.28 494.19 142.89 246.69 0"/><g id="Cube_alone" data-name="Cube alone"><g class="cls-2"><polygon class="cls-3" points="317.81 417.61 247.33 458.57 176.39 417.61 246.87 376.65 317.81 417.61"/><polygon class="cls-3" points="317.81 417.2 247.33 458.16 176.39 417.2 246.87 376.25 317.81 417.2"/><polygon class="cls-3" points="317.81 416.79 247.33 457.75 176.39 416.79 246.87 375.84 317.81 416.79"/><polygon class="cls-4" points="317.81 416.39 247.33 457.34 176.39 416.39 246.87 375.43 317.81 416.39"/><polygon class="cls-4" points="317.81 415.98 247.33 456.94 176.39 415.98 246.87 375.02 317.81 415.98"/><polygon class="cls-4" points="317.81 415.57 247.33 456.53 176.39 415.57 246.87 374.61 317.81 415.57"/><polygon class="cls-4" points="317.81 415.16 247.33 456.12 176.39 415.16 246.87 374.2 317.81 415.16"/><polygon class="cls-5" points="317.81 414.75 247.33 455.71 176.39 414.75 246.87 373.8 317.81 414.75"/><polygon class="cls-6" points="317.81 414.35 247.33 455.3 176.39 414.35 246.87 373.39 317.81 414.35"/><polygon class="cls-6" points="317.81 413.94 247.33 454.9 176.39 413.94 246.87 372.98 317.81 413.94"/><polygon class="cls-6" points="317.81 413.53 247.33 454.49 176.39 413.53 246.87 372.57 317.81 413.53"/><polygon class="cls-6" points="317.81 413.12 247.33 454.08 176.39 413.12 246.87 372.17 317.81 413.12"/><polygon class="cls-6" points="317.81 412.71 247.33 453.67 176.39 412.71 246.87 371.76 317.81 412.71"/><polygon class="cls-7" points="317.81 412.31 247.33 453.26 176.39 412.31 246.87 371.35 317.81 412.31"/><polygon class="cls-7" points="317.81 411.9 247.33 452.86 176.39 411.9 246.87 370.94 317.81 411.9"/><polygon class="cls-7" points="317.81 411.49 247.33 452.45 176.39 411.49 246.87 370.53 317.81 411.49"/><polygon class="cls-7" points="317.81 411.08 247.33 452.04 176.39 411.08 246.87 370.13 317.81 411.08"/><polygon class="cls-7" points="317.81 410.67 247.33 451.63 176.39 410.68 246.87 369.72 317.81 410.67"/><polygon class="cls-8" points="317.81 410.27 247.33 451.22 176.39 410.27 246.87 369.31 317.81 410.27"/><polygon class="cls-9" points="317.81 409.86 247.33 450.82 176.39 409.86 246.87 368.9 317.81 409.86"/><polygon class="cls-9" points="317.81 409.45 247.33 450.41 176.39 409.45 246.87 368.49 317.81 409.45"/><polygon class="cls-9" points="317.81 409.04 247.33 450 176.39 409.04 246.87 368.08 317.81 409.04"/><polygon class="cls-9" points="317.81 408.63 247.33 449.59 176.39 408.63 246.87 367.68 317.81 408.63"/><polygon class="cls-10" points="317.81 408.23 247.33 449.18 176.39 408.23 246.87 367.27 317.81 408.23"/><polygon class="cls-10" points="317.81 407.82 247.33 448.78 176.39 407.82 246.87 366.86 317.81 407.82"/><polygon class="cls-10" points="317.81 407.41 247.33 448.37 176.39 407.41 246.87 366.45 317.81 407.41"/><polygon class="cls-10" points="317.81 407 247.33 447.96 176.39 407 246.87 366.05 317.81 407"/><polygon class="cls-11" points="317.81 406.6 247.33 447.55 176.39 406.6 246.87 365.64 317.81 406.6"/><polygon class="cls-11" points="317.81 406.19 247.33 447.14 176.39 406.19 246.87 365.23 317.81 406.19"/><polygon class="cls-11" points="317.81 405.78 247.33 446.74 176.39 405.78 246.87 364.82 317.81 405.78"/><polygon class="cls-11" points="317.81 405.37 247.33 446.33 176.39 405.37 246.87 364.41 317.81 405.37"/><polygon class="cls-11" points="317.81 404.96 247.33 445.92 176.39 404.96 246.87 364.01 317.81 404.96"/><polygon class="cls-12" points="317.81 404.56 247.33 445.51 176.39 404.56 246.87 363.6 317.81 404.56"/><polygon class="cls-12" points="317.81 404.15 247.33 445.11 176.39 404.15 246.87 363.19 317.81 404.15"/><polygon class="cls-12" points="317.81 403.74 247.33 444.7 176.39 403.74 246.87 362.78 317.81 403.74"/><polygon class="cls-12" points="317.81 403.33 247.33 444.29 176.39 403.33 246.87 362.37 317.81 403.33"/><polygon class="cls-12" points="317.81 402.92 247.33 443.88 176.39 402.92 246.87 361.97 317.81 402.92"/><polygon class="cls-13" points="317.81 402.51 247.33 443.47 176.39 402.52 246.87 361.56 317.81 402.51"/><polygon class="cls-13" points="317.81 402.11 247.33 443.06 176.39 402.11 246.87 361.15 317.81 402.11"/><polygon class="cls-13" points="317.81 401.7 247.33 442.66 176.39 401.7 246.87 360.74 317.81 401.7"/><polygon class="cls-13" points="317.81 401.29 247.33 442.25 176.39 401.29 246.87 360.33 317.81 401.29"/><polygon class="cls-13" points="317.81 400.88 247.33 441.84 176.39 400.88 246.87 359.93 317.81 400.88"/><polygon class="cls-14" points="317.81 400.48 247.33 441.43 176.39 400.48 246.87 359.52 317.81 400.48"/><polygon class="cls-14" points="317.81 400.07 247.33 441.02 176.39 400.07 246.87 359.11 317.81 400.07"/><polygon class="cls-15" points="317.81 399.66 247.33 440.62 176.39 399.66 246.87 358.7 317.81 399.66"/><polygon class="cls-15" points="317.81 399.25 247.33 440.21 176.39 399.25 246.87 358.29 317.81 399.25"/><polygon class="cls-15" points="317.81 398.84 247.33 439.8 176.39 398.84 246.87 357.89 317.81 398.84"/><polygon class="cls-16" points="317.81 398.44 247.33 439.39 176.39 398.44 246.87 357.48 317.81 398.44"/><polygon class="cls-16" points="317.81 398.03 247.33 438.99 176.39 398.03 246.87 357.07 317.81 398.03"/><polygon class="cls-16" points="317.81 397.62 247.33 438.58 176.39 397.62 246.87 356.66 317.81 397.62"/><polygon class="cls-16" points="317.81 397.21 247.33 438.17 176.39 397.21 246.87 356.25 317.81 397.21"/><polygon class="cls-17" points="317.81 396.8 247.33 437.76 176.39 396.8 246.87 355.85 317.81 396.8"/><polygon class="cls-18" points="317.81 396.4 247.33 437.35 176.39 396.4 246.87 355.44 317.81 396.4"/><polygon class="cls-18" points="317.81 395.99 247.33 436.95 176.39 395.99 246.87 355.03 317.81 395.99"/><polygon class="cls-18" points="317.81 395.58 247.33 436.54 176.39 395.58 246.87 354.62 317.81 395.58"/><polygon class="cls-18" points="317.81 395.17 247.33 436.13 176.39 395.17 246.87 354.21 317.81 395.17"/><polygon class="cls-18" points="317.81 394.76 247.33 435.72 176.39 394.76 246.87 353.81 317.81 394.76"/><polygon class="cls-19" points="317.81 394.36 247.33 435.31 176.39 394.36 246.87 353.4 317.81 394.36"/><polygon class="cls-19" points="317.81 393.95 247.33 434.91 176.39 393.95 246.87 352.99 317.81 393.95"/><polygon class="cls-19" points="317.81 393.54 247.33 434.5 176.39 393.54 246.87 352.58 317.81 393.54"/><polygon class="cls-19" points="317.81 393.13 247.33 434.09 176.39 393.13 246.87 352.18 317.81 393.13"/><polygon class="cls-19" points="317.81 392.72 247.33 433.68 176.39 392.73 246.87 351.77 317.81 392.72"/><polygon class="cls-20" points="317.81 392.32 247.33 433.27 176.39 392.32 246.87 351.36 317.81 392.32"/><polygon class="cls-20" points="317.81 391.91 247.33 432.87 176.39 391.91 246.87 350.95 317.81 391.91"/><polygon class="cls-20" points="317.81 391.5 247.33 432.46 176.39 391.5 246.87 350.54 317.81 391.5"/><polygon class="cls-20" points="317.81 391.09 247.33 432.05 176.39 391.09 246.87 350.13 317.81 391.09"/><polygon class="cls-20" points="317.81 390.68 247.33 431.64 176.39 390.69 246.87 349.73 317.81 390.68"/><polygon class="cls-21" points="317.81 390.28 247.33 431.23 176.39 390.28 246.87 349.32 317.81 390.28"/><polygon class="cls-21" points="317.81 389.87 247.33 430.83 176.39 389.87 246.87 348.91 317.81 389.87"/><polygon class="cls-21" points="317.81 389.46 247.33 430.42 176.39 389.46 246.87 348.5 317.81 389.46"/><polygon class="cls-22" points="317.81 389.05 247.33 430.01 176.39 389.05 246.87 348.1 317.81 389.05"/><polygon class="cls-22" points="317.81 388.64 247.33 429.6 176.39 388.64 246.87 347.69 317.81 388.64"/><polygon class="cls-23" points="317.81 388.24 247.33 429.19 176.39 388.24 246.87 347.28 317.81 388.24"/><polygon class="cls-23" points="317.81 387.83 247.33 428.79 176.39 387.83 246.87 346.87 317.81 387.83"/><polygon class="cls-23" points="317.81 387.42 247.33 428.38 176.39 387.42 246.87 346.46 317.81 387.42"/><polygon class="cls-23" points="317.81 387.01 247.33 427.97 176.39 387.01 246.87 346.06 317.81 387.01"/><polygon class="cls-24" points="317.81 386.61 247.33 427.56 176.39 386.61 246.87 345.65 317.81 386.61"/><polygon class="cls-24" points="317.81 386.2 247.33 427.15 176.39 386.2 246.87 345.24 317.81 386.2"/><polygon class="cls-24" points="317.81 385.79 247.33 426.75 176.39 385.79 246.87 344.83 317.81 385.79"/><polygon class="cls-24" points="317.81 385.38 247.33 426.34 176.39 385.38 246.87 344.42 317.81 385.38"/><polygon class="cls-24" points="317.81 384.97 247.33 425.93 176.39 384.97 246.87 344.02 317.81 384.97"/><polygon class="cls-25" points="317.81 384.56 247.33 425.52 176.39 384.57 246.87 343.61 317.81 384.56"/><polygon class="cls-26" points="317.81 384.16 247.33 425.12 176.39 384.16 246.87 343.2 317.81 384.16"/><polygon class="cls-26" points="317.81 383.75 247.33 424.71 176.39 383.75 246.87 342.79 317.81 383.75"/><polygon class="cls-26" points="317.81 383.34 247.33 424.3 176.39 383.34 246.87 342.38 317.81 383.34"/><polygon class="cls-26" points="317.81 382.93 247.33 423.89 176.39 382.93 246.87 341.98 317.81 382.93"/><polygon class="cls-27" points="317.81 382.52 247.33 423.48 176.39 382.53 246.87 341.57 317.81 382.52"/><polygon class="cls-27" points="317.81 382.12 247.33 423.07 176.39 382.12 246.87 341.16 317.81 382.12"/><polygon class="cls-27" points="317.81 381.71 247.33 422.67 176.39 381.71 246.87 340.75 317.81 381.71"/><polygon class="cls-27" points="317.81 381.3 247.33 422.26 176.39 381.3 246.87 340.34 317.81 381.3"/><polygon class="cls-27" points="317.81 380.89 247.33 421.85 176.39 380.89 246.87 339.94 317.81 380.89"/><polygon class="cls-28" points="317.81 380.49 247.33 421.44 176.39 380.49 246.87 339.53 317.81 380.49"/><polygon class="cls-28" points="317.81 380.08 247.33 421.04 176.39 380.08 246.87 339.12 317.81 380.08"/><polygon class="cls-28" points="317.81 379.67 247.33 420.63 176.39 379.67 246.87 338.71 317.81 379.67"/><polygon class="cls-28" points="317.81 379.26 247.33 420.22 176.39 379.26 246.87 338.3 317.81 379.26"/><polygon class="cls-29" points="317.81 378.85 247.33 419.81 176.39 378.85 246.87 337.9 317.81 378.85"/><polygon class="cls-30" points="317.81 378.45 247.33 419.4 176.39 378.45 246.87 337.49 317.81 378.45"/><polygon class="cls-30" points="317.81 378.04 247.33 419 176.39 378.04 246.87 337.08 317.81 378.04"/><polygon class="cls-30" points="317.81 377.63 247.33 418.59 176.39 377.63 246.87 336.67 317.81 377.63"/><polygon class="cls-30" points="317.81 377.22 247.33 418.18 176.39 377.22 246.87 336.26 317.81 377.22"/><polygon class="cls-30" points="317.81 376.81 247.33 417.77 176.39 376.81 246.87 335.86 317.81 376.81"/><polygon class="cls-31" points="317.81 376.41 247.33 417.36 176.39 376.41 246.87 335.45 317.81 376.41"/><polygon class="cls-31" points="317.81 376 247.33 416.96 176.39 376 246.87 335.04 317.81 376"/><polygon class="cls-31" points="317.81 375.59 247.33 416.55 176.39 375.59 246.87 334.63 317.81 375.59"/><polygon class="cls-31" points="317.81 375.18 247.33 416.14 176.39 375.18 246.87 334.23 317.81 375.18"/><polygon class="cls-31" points="317.81 374.77 247.33 415.73 176.39 374.77 246.87 333.82 317.81 374.77"/><polygon class="cls-32" points="317.81 374.37 247.33 415.32 176.39 374.37 246.87 333.41 317.81 374.37"/><polygon class="cls-33" points="317.81 373.96 247.33 414.92 176.39 373.96 246.87 333 317.81 373.96"/><polygon class="cls-33" points="317.81 373.55 247.33 414.51 176.39 373.55 246.87 332.59 317.81 373.55"/><polygon class="cls-33" points="317.81 373.14 247.33 414.1 176.39 373.14 246.87 332.19 317.81 373.14"/><polygon class="cls-33" points="317.81 372.73 247.33 413.69 176.39 372.74 246.87 331.78 317.81 372.73"/><polygon class="cls-34" points="317.81 372.33 247.33 413.28 176.39 372.33 246.87 331.37 317.81 372.33"/><polygon class="cls-34" points="317.81 371.92 247.33 412.88 176.39 371.92 246.87 330.96 317.81 371.92"/><polygon class="cls-34" points="317.81 371.51 247.33 412.47 176.39 371.51 246.87 330.55 317.81 371.51"/><polygon class="cls-34" points="317.81 371.1 247.33 412.06 176.39 371.1 246.87 330.14 317.81 371.1"/><polygon class="cls-34" points="317.81 370.69 247.33 411.65 176.39 370.69 246.87 329.74 317.81 370.69"/><polygon class="cls-35" points="317.81 370.29 247.33 411.24 176.39 370.29 246.87 329.33 317.81 370.29"/><polygon class="cls-35" points="317.81 369.88 247.33 410.84 176.39 369.88 246.87 328.92 317.81 369.88"/><polygon class="cls-35" points="317.81 369.47 247.33 410.43 176.39 369.47 246.87 328.51 317.81 369.47"/><polygon class="cls-35" points="317.81 369.06 247.33 410.02 176.39 369.06 246.87 328.11 317.81 369.06"/><polygon class="cls-36" points="317.81 368.65 247.33 409.61 176.39 368.65 246.87 327.7 317.81 368.65"/><polygon class="cls-37" points="317.81 368.25 247.33 409.2 176.39 368.25 246.87 327.29 317.81 368.25"/><polygon class="cls-37" points="317.81 367.84 247.33 408.8 176.39 367.84 246.87 326.88 317.81 367.84"/><polygon class="cls-37" points="317.81 367.43 247.33 408.39 176.39 367.43 246.87 326.47 317.81 367.43"/><polygon class="cls-37" points="317.81 367.02 247.33 407.98 176.39 367.02 246.87 326.06 317.81 367.02"/><polygon class="cls-37" points="317.81 366.62 247.33 407.57 176.39 366.62 246.87 325.66 317.81 366.62"/><polygon class="cls-38" points="317.81 366.21 247.33 407.17 176.39 366.21 246.87 325.25 317.81 366.21"/><polygon class="cls-38" points="317.81 365.8 247.33 406.76 176.39 365.8 246.87 324.84 317.81 365.8"/><polygon class="cls-38" points="317.81 365.39 247.33 406.35 176.39 365.39 246.87 324.43 317.81 365.39"/><polygon class="cls-38" points="317.81 364.98 247.33 405.94 176.39 364.98 246.87 324.03 317.81 364.98"/><polygon class="cls-39" points="317.81 364.57 247.33 405.53 176.39 364.58 246.87 323.62 317.81 364.57"/><polygon class="cls-39" points="317.81 364.17 247.33 405.13 176.39 364.17 246.87 323.21 317.81 364.17"/><polygon class="cls-40" points="317.81 363.76 247.33 404.72 176.39 363.76 246.87 322.8 317.81 363.76"/><polygon class="cls-40" points="317.81 363.35 247.33 404.31 176.39 363.35 246.87 322.39 317.81 363.35"/><polygon class="cls-40" points="317.81 362.94 247.33 403.9 176.39 362.94 246.87 321.99 317.81 362.94"/><polygon class="cls-41" points="317.81 362.54 247.33 403.49 176.39 362.54 246.87 321.58 317.81 362.54"/><polygon class="cls-41" points="317.81 362.13 247.33 403.08 176.39 362.13 246.87 321.17 317.81 362.13"/><polygon class="cls-41" points="317.81 361.72 247.33 402.68 176.39 361.72 246.87 320.76 317.81 361.72"/><polygon class="cls-41" points="317.81 361.31 247.33 402.27 176.39 361.31 246.87 320.35 317.81 361.31"/><polygon class="cls-41" points="317.81 360.9 247.33 401.86 176.39 360.9 246.87 319.95 317.81 360.9"/><polygon class="cls-42" points="317.81 360.5 247.33 401.45 176.39 360.5 246.87 319.54 317.81 360.5"/><polygon class="cls-42" points="317.81 360.09 247.33 401.05 176.39 360.09 246.87 319.13 317.81 360.09"/><polygon class="cls-42" points="317.81 359.68 247.33 400.64 176.39 359.68 246.87 318.72 317.81 359.68"/><polygon class="cls-42" points="317.81 359.27 247.33 400.23 176.39 359.27 246.87 318.31 317.81 359.27"/><polygon class="cls-42" points="317.81 358.86 247.33 399.82 176.39 358.86 246.87 317.91 317.81 358.86"/><polygon class="cls-43" points="317.81 358.45 247.33 399.41 176.39 358.46 246.87 317.5 317.81 358.45"/><polygon class="cls-43" points="317.81 358.05 247.33 399 176.39 358.05 246.87 317.09 317.81 358.05"/><polygon class="cls-43" points="317.81 357.64 247.33 398.6 176.39 357.64 246.87 316.68 317.81 357.64"/><polygon class="cls-43" points="317.81 357.23 247.33 398.19 176.39 357.23 246.87 316.27 317.81 357.23"/><polygon class="cls-43" points="317.81 356.82 247.33 397.78 176.39 356.82 246.87 315.87 317.81 356.82"/><polygon class="cls-44" points="317.81 356.42 247.33 397.37 176.39 356.42 246.87 315.46 317.81 356.42"/><polygon class="cls-45" points="317.81 356.01 247.33 396.97 176.39 356.01 246.87 315.05 317.81 356.01"/><polygon class="cls-45" points="317.81 355.6 247.33 396.56 176.39 355.6 246.87 314.64 317.81 355.6"/><polygon class="cls-45" points="317.81 355.19 247.33 396.15 176.39 355.19 246.87 314.24 317.81 355.19"/><polygon class="cls-45" points="317.81 354.78 247.33 395.74 176.39 354.78 246.87 313.83 317.81 354.78"/><polygon class="cls-46" points="317.81 354.38 247.33 395.33 176.39 354.38 246.87 313.42 317.81 354.38"/><polygon class="cls-46" points="317.81 353.97 247.33 394.93 176.39 353.97 246.87 313.01 317.81 353.97"/><polygon class="cls-46" points="317.81 353.56 247.33 394.52 176.39 353.56 246.87 312.6 317.81 353.56"/><polygon class="cls-47" points="317.81 353.15 247.33 394.11 176.39 353.15 246.87 312.19 317.81 353.15"/><polygon class="cls-47" points="317.81 352.74 247.33 393.7 176.39 352.75 246.87 311.79 317.81 352.74"/><polygon class="cls-48" points="317.81 352.34 247.33 393.29 176.39 352.34 246.87 311.38 317.81 352.34"/><polygon class="cls-48" points="317.81 351.93 247.33 392.89 176.39 351.93 246.87 310.97 317.81 351.93"/><polygon class="cls-48" points="317.81 351.52 247.33 392.48 176.39 351.52 246.87 310.56 317.81 351.52"/><polygon class="cls-48" points="317.81 351.11 247.33 392.07 176.39 351.11 246.87 310.15 317.81 351.11"/><polygon class="cls-48" points="317.81 350.7 247.33 391.66 176.39 350.7 246.87 309.75 317.81 350.7"/><polygon class="cls-49" points="317.81 350.3 247.33 391.25 176.39 350.3 246.87 309.34 317.81 350.3"/><polygon class="cls-49" points="317.81 349.89 247.33 390.85 176.39 349.89 246.87 308.93 317.81 349.89"/><polygon class="cls-49" points="317.81 349.48 247.33 390.44 176.39 349.48 246.87 308.52 317.81 349.48"/><polygon class="cls-49" points="317.81 349.07 247.33 390.03 176.39 349.07 246.87 308.12 317.81 349.07"/><polygon class="cls-49" points="317.81 348.66 247.33 389.62 176.39 348.67 246.87 307.71 317.81 348.66"/><polygon class="cls-50" points="317.81 348.26 247.33 389.21 176.39 348.26 246.87 307.3 317.81 348.26"/><polygon class="cls-50" points="317.81 347.85 247.33 388.81 176.39 347.85 246.87 306.89 317.81 347.85"/><polygon class="cls-50" points="317.81 347.44 247.33 388.4 176.39 347.44 246.87 306.48 317.81 347.44"/><polygon class="cls-50" points="317.81 347.03 247.33 387.99 176.39 347.03 246.87 306.07 317.81 347.03"/><polygon class="cls-50" points="317.81 346.63 247.33 387.58 176.39 346.63 246.87 305.67 317.81 346.63"/><polygon class="cls-51" points="317.81 346.22 247.33 387.18 176.39 346.22 246.87 305.26 317.81 346.22"/><polygon class="cls-51" points="317.81 345.81 247.33 386.77 176.39 345.81 246.87 304.85 317.81 345.81"/><polygon class="cls-51" points="317.81 345.4 247.33 386.36 176.39 345.4 246.87 304.44 317.81 345.4"/><polygon class="cls-51" points="317.81 344.99 247.33 385.95 176.39 344.99 246.87 304.04 317.81 344.99"/><polygon class="cls-52" points="317.81 344.58 247.33 385.54 176.39 344.58 246.87 303.63 317.81 344.58"/><polygon class="cls-52" points="317.81 344.18 247.33 385.13 176.39 344.18 246.87 303.22 317.81 344.18"/><polygon class="cls-52" points="317.81 343.77 247.33 384.73 176.39 343.77 246.87 302.81 317.81 343.77"/><polygon class="cls-52" points="317.81 343.36 247.33 384.32 176.39 343.36 246.87 302.4 317.81 343.36"/><polygon class="cls-53" points="317.81 342.95 247.33 383.91 176.39 342.95 246.87 302 317.81 342.95"/><polygon class="cls-54" points="317.81 342.55 247.33 383.5 176.39 342.55 246.87 301.59 317.81 342.55"/><polygon class="cls-54" points="317.81 342.14 247.33 383.1 176.39 342.14 246.87 301.18 317.81 342.14"/><polygon class="cls-54" points="317.81 341.73 247.33 382.69 176.39 341.73 246.87 300.77 317.81 341.73"/><polygon class="cls-54" points="317.81 341.32 247.33 382.28 176.39 341.32 246.87 300.36 317.81 341.32"/><polygon class="cls-54" points="317.81 340.91 247.33 381.87 176.39 340.91 246.87 299.96 317.81 340.91"/><polygon class="cls-55" points="317.81 340.5 247.33 381.46 176.39 340.51 246.87 299.55 317.81 340.5"/><polygon class="cls-55" points="317.81 340.1 247.33 381.06 176.39 340.1 246.87 299.14 317.81 340.1"/><polygon class="cls-55" points="317.81 339.69 247.33 380.65 176.39 339.69 246.87 298.73 317.81 339.69"/><polygon class="cls-55" points="317.81 339.28 247.33 380.24 176.39 339.28 246.87 298.32 317.81 339.28"/><polygon class="cls-55" points="317.81 338.87 247.33 379.83 176.39 338.87 246.87 297.92 317.81 338.87"/><polygon class="cls-56" points="317.81 338.46 247.33 379.42 176.39 338.47 246.87 297.51 317.81 338.46"/><polygon class="cls-57" points="317.81 338.06 247.33 379.01 176.39 338.06 246.87 297.1 317.81 338.06"/><polygon class="cls-57" points="317.81 337.65 247.33 378.61 176.39 337.65 246.87 296.69 317.81 337.65"/><polygon class="cls-57" points="317.81 337.24 247.33 378.2 176.39 337.24 246.87 296.28 317.81 337.24"/><polygon class="cls-57" points="317.81 336.83 247.33 377.79 176.39 336.83 246.87 295.88 317.81 336.83"/><polygon class="cls-58" points="317.81 336.43 247.33 377.38 176.39 336.43 246.87 295.47 317.81 336.43"/><polygon class="cls-58" points="317.81 336.02 247.33 376.98 176.39 336.02 246.87 295.06 317.81 336.02"/><polygon class="cls-58" points="317.81 335.61 247.33 376.57 176.39 335.61 246.87 294.65 317.81 335.61"/></g><polygon class="cls-59" points="285.1 335.61 247.22 357.62 209.1 335.61 246.97 313.6 285.1 335.61"/></g><g id="Cube_alone-2" data-name="Cube alone"><g class="cls-2"><polygon class="cls-59" points="352.58 297.51 247.44 358.61 141.62 297.51 246.75 236.41 352.58 297.51"/><polygon class="cls-59" points="352.58 297.46 247.44 358.56 141.62 297.46 246.75 236.36 352.58 297.46"/><polygon class="cls-59" points="352.58 297.41 247.44 358.51 141.62 297.41 246.75 236.31 352.58 297.41"/><polygon class="cls-59" points="352.58 297.36 247.44 358.46 141.62 297.37 246.75 236.27 352.58 297.36"/><polygon class="cls-59" points="352.58 297.32 247.44 358.42 141.62 297.32 246.75 236.22 352.58 297.32"/><polygon class="cls-59" points="352.58 297.27 247.44 358.37 141.62 297.27 246.75 236.17 352.58 297.27"/><polygon class="cls-59" points="352.58 297.22 247.44 358.32 141.62 297.22 246.75 236.12 352.58 297.22"/><polygon class="cls-59" points="352.58 297.17 247.44 358.27 141.62 297.17 246.75 236.07 352.58 297.17"/><polygon class="cls-59" points="352.58 297.12 247.44 358.22 141.62 297.12 246.75 236.02 352.58 297.12"/><polygon class="cls-59" points="352.58 297.07 247.44 358.17 141.62 297.07 246.75 235.97 352.58 297.07"/><polygon class="cls-59" points="352.58 297.02 247.44 358.12 141.62 297.02 246.75 235.93 352.58 297.02"/><polygon class="cls-59" points="352.58 296.97 247.44 358.07 141.62 296.98 246.75 235.88 352.58 296.97"/><polygon class="cls-59" points="352.58 296.93 247.44 358.02 141.62 296.93 246.75 235.83 352.58 296.93"/><polygon class="cls-59" points="352.58 296.88 247.44 357.98 141.62 296.88 246.75 235.78 352.58 296.88"/><polygon class="cls-59" points="352.58 296.83 247.44 357.93 141.62 296.83 246.75 235.73 352.58 296.83"/><polygon class="cls-59" points="352.58 296.78 247.44 357.88 141.62 296.78 246.75 235.68 352.58 296.78"/><polygon class="cls-59" points="352.58 296.73 247.44 357.83 141.62 296.73 246.75 235.63 352.58 296.73"/><polygon class="cls-59" points="352.58 296.68 247.44 357.78 141.62 296.68 246.75 235.58 352.58 296.68"/><polygon class="cls-59" points="352.58 296.63 247.44 357.73 141.62 296.63 246.75 235.53 352.58 296.63"/><polygon class="cls-59" points="352.58 296.58 247.44 357.68 141.62 296.58 246.75 235.49 352.58 296.58"/><polygon class="cls-59" points="352.58 296.54 247.44 357.63 141.62 296.54 246.75 235.44 352.58 296.54"/><polygon class="cls-59" points="352.58 296.49 247.44 357.59 141.62 296.49 246.75 235.39 352.58 296.49"/><polygon class="cls-59" points="352.58 296.44 247.44 357.54 141.62 296.44 246.75 235.34 352.58 296.44"/><polygon class="cls-59" points="352.58 296.39 247.44 357.49 141.62 296.39 246.75 235.29 352.58 296.39"/><polygon class="cls-59" points="352.58 296.34 247.44 357.44 141.62 296.34 246.75 235.24 352.58 296.34"/><polygon class="cls-59" points="352.58 296.29 247.44 357.39 141.62 296.29 246.75 235.19 352.58 296.29"/><polygon class="cls-59" points="352.58 296.24 247.44 357.34 141.62 296.24 246.75 235.14 352.58 296.24"/><polygon class="cls-59" points="352.58 296.19 247.44 357.29 141.62 296.19 246.75 235.1 352.58 296.19"/><polygon class="cls-59" points="352.58 296.14 247.44 357.25 141.62 296.15 246.75 235.05 352.58 296.14"/><polygon class="cls-59" points="352.58 296.1 247.44 357.2 141.62 296.1 246.75 235 352.58 296.1"/><polygon class="cls-59" points="352.58 296.05 247.44 357.15 141.62 296.05 246.75 234.95 352.58 296.05"/><polygon class="cls-59" points="352.58 296 247.44 357.1 141.62 296 246.75 234.9 352.58 296"/><polygon class="cls-59" points="352.58 295.95 247.44 357.05 141.62 295.95 246.75 234.85 352.58 295.95"/><polygon class="cls-59" points="352.58 295.9 247.44 357 141.62 295.9 246.75 234.8 352.58 295.9"/><polygon class="cls-59" points="352.58 295.85 247.44 356.95 141.62 295.85 246.75 234.75 352.58 295.85"/><polygon class="cls-59" points="352.58 295.8 247.44 356.9 141.62 295.81 246.75 234.71 352.58 295.8"/><polygon class="cls-59" points="352.58 295.75 247.44 356.85 141.62 295.76 246.75 234.66 352.58 295.75"/><polygon class="cls-59" points="352.58 295.71 247.44 356.81 141.62 295.71 246.75 234.61 352.58 295.71"/><polygon class="cls-59" points="352.58 295.66 247.44 356.76 141.62 295.66 246.75 234.56 352.58 295.66"/><polygon class="cls-59" points="352.58 295.61 247.44 356.71 141.62 295.61 246.75 234.51 352.58 295.61"/><polygon class="cls-59" points="352.58 295.56 247.44 356.66 141.62 295.56 246.75 234.46 352.58 295.56"/><polygon class="cls-59" points="352.58 295.51 247.44 356.61 141.62 295.51 246.75 234.41 352.58 295.51"/><polygon class="cls-59" points="352.58 295.46 247.44 356.56 141.62 295.46 246.75 234.36 352.58 295.46"/><polygon class="cls-59" points="352.58 295.41 247.44 356.51 141.62 295.42 246.75 234.31 352.58 295.41"/><polygon class="cls-59" points="352.58 295.37 247.44 356.46 141.62 295.37 246.75 234.27 352.58 295.37"/><polygon class="cls-59" points="352.58 295.32 247.44 356.42 141.62 295.32 246.75 234.22 352.58 295.32"/><polygon class="cls-59" points="352.58 295.27 247.44 356.37 141.62 295.27 246.75 234.17 352.58 295.27"/><polygon class="cls-59" points="352.58 295.22 247.44 356.32 141.62 295.22 246.75 234.12 352.58 295.22"/><polygon class="cls-59" points="352.58 295.17 247.44 356.27 141.62 295.17 246.75 234.07 352.58 295.17"/><polygon class="cls-59" points="352.58 295.12 247.44 356.22 141.62 295.12 246.75 234.02 352.58 295.12"/><polygon class="cls-59" points="352.58 295.07 247.44 356.17 141.62 295.07 246.75 233.97 352.58 295.07"/><polygon class="cls-59" points="352.58 295.02 247.44 356.12 141.62 295.02 246.75 233.93 352.58 295.02"/><polygon class="cls-59" points="352.58 294.98 247.44 356.07 141.62 294.98 246.75 233.88 352.58 294.98"/><polygon class="cls-59" points="352.58 294.93 247.44 356.02 141.62 294.93 246.75 233.83 352.58 294.93"/><polygon class="cls-59" points="352.58 294.88 247.44 355.98 141.62 294.88 246.75 233.78 352.58 294.88"/><polygon class="cls-59" points="352.58 294.83 247.44 355.93 141.62 294.83 246.75 233.73 352.58 294.83"/><polygon class="cls-59" points="352.58 294.78 247.44 355.88 141.62 294.78 246.75 233.68 352.58 294.78"/><polygon class="cls-59" points="352.58 294.73 247.44 355.83 141.62 294.73 246.75 233.63 352.58 294.73"/><polygon class="cls-59" points="352.58 294.68 247.44 355.78 141.62 294.68 246.75 233.58 352.58 294.68"/><polygon class="cls-59" points="352.58 294.63 247.44 355.73 141.62 294.63 246.75 233.53 352.58 294.63"/><polygon class="cls-59" points="352.58 294.58 247.44 355.68 141.62 294.59 246.75 233.49 352.58 294.58"/><polygon class="cls-59" points="352.58 294.54 247.44 355.63 141.62 294.54 246.75 233.44 352.58 294.54"/><polygon class="cls-59" points="352.58 294.49 247.44 355.59 141.62 294.49 246.75 233.39 352.58 294.49"/><polygon class="cls-59" points="352.58 294.44 247.44 355.54 141.62 294.44 246.75 233.34 352.58 294.44"/><polygon class="cls-59" points="352.58 294.39 247.44 355.49 141.62 294.39 246.75 233.29 352.58 294.39"/><polygon class="cls-59" points="352.58 294.34 247.44 355.44 141.62 294.34 246.75 233.24 352.58 294.34"/><polygon class="cls-59" points="352.58 294.29 247.44 355.39 141.62 294.29 246.75 233.19 352.58 294.29"/><polygon class="cls-59" points="352.58 294.24 247.44 355.34 141.62 294.24 246.75 233.15 352.58 294.24"/><polygon class="cls-59" points="352.58 294.19 247.44 355.29 141.62 294.19 246.75 233.1 352.58 294.19"/><polygon class="cls-59" points="352.58 294.15 247.44 355.25 141.62 294.15 246.75 233.05 352.58 294.15"/><polygon class="cls-59" points="352.58 294.1 247.44 355.2 141.62 294.1 246.75 233 352.58 294.1"/><polygon class="cls-59" points="352.58 294.05 247.44 355.15 141.62 294.05 246.75 232.95 352.58 294.05"/><polygon class="cls-59" points="352.58 294 247.44 355.1 141.62 294 246.75 232.9 352.58 294"/><polygon class="cls-59" points="352.58 293.95 247.44 355.05 141.62 293.95 246.75 232.85 352.58 293.95"/><polygon class="cls-59" points="352.58 293.9 247.44 355 141.62 293.9 246.75 232.8 352.58 293.9"/><polygon class="cls-59" points="352.58 293.85 247.44 354.95 141.62 293.85 246.75 232.75 352.58 293.85"/><polygon class="cls-59" points="352.58 293.8 247.44 354.9 141.62 293.81 246.75 232.71 352.58 293.8"/><polygon class="cls-59" points="352.58 293.76 247.44 354.86 141.62 293.76 246.75 232.66 352.58 293.76"/><polygon class="cls-59" points="352.58 293.71 247.44 354.81 141.62 293.71 246.75 232.61 352.58 293.71"/><polygon class="cls-59" points="352.58 293.66 247.44 354.76 141.62 293.66 246.75 232.56 352.58 293.66"/><polygon class="cls-59" points="352.58 293.61 247.44 354.71 141.62 293.61 246.75 232.51 352.58 293.61"/><polygon class="cls-59" points="352.58 293.56 247.44 354.66 141.62 293.56 246.75 232.46 352.58 293.56"/><polygon class="cls-59" points="352.58 293.51 247.44 354.61 141.62 293.51 246.75 232.41 352.58 293.51"/><polygon class="cls-59" points="352.58 293.46 247.44 354.56 141.62 293.46 246.75 232.37 352.58 293.46"/><polygon class="cls-59" points="352.58 293.41 247.44 354.51 141.62 293.42 246.75 232.32 352.58 293.41"/><polygon class="cls-59" points="352.58 293.37 247.44 354.46 141.62 293.37 246.75 232.27 352.58 293.37"/><polygon class="cls-59" points="352.58 293.32 247.44 354.42 141.62 293.32 246.75 232.22 352.58 293.32"/><polygon class="cls-59" points="352.58 293.27 247.44 354.37 141.62 293.27 246.75 232.17 352.58 293.27"/><polygon class="cls-59" points="352.58 293.22 247.44 354.32 141.62 293.22 246.75 232.12 352.58 293.22"/><polygon class="cls-59" points="352.58 293.17 247.44 354.27 141.62 293.17 246.75 232.07 352.58 293.17"/><polygon class="cls-59" points="352.58 293.12 247.44 354.22 141.62 293.12 246.75 232.02 352.58 293.12"/><polygon class="cls-59" points="352.58 293.07 247.44 354.17 141.62 293.07 246.75 231.97 352.58 293.07"/><polygon class="cls-59" points="352.58 293.02 247.44 354.12 141.62 293.02 246.75 231.93 352.58 293.02"/><polygon class="cls-59" points="352.58 292.98 247.44 354.07 141.62 292.98 246.75 231.88 352.58 292.98"/><polygon class="cls-59" points="352.58 292.93 247.44 354.03 141.62 292.93 246.75 231.83 352.58 292.93"/><polygon class="cls-59" points="352.58 292.88 247.44 353.98 141.62 292.88 246.75 231.78 352.58 292.88"/><polygon class="cls-59" points="352.58 292.83 247.44 353.93 141.62 292.83 246.75 231.73 352.58 292.83"/><polygon class="cls-59" points="352.58 292.78 247.44 353.88 141.62 292.78 246.75 231.68 352.58 292.78"/><polygon class="cls-59" points="352.58 292.73 247.44 353.83 141.62 292.73 246.75 231.63 352.58 292.73"/><polygon class="cls-59" points="352.58 292.68 247.44 353.78 141.62 292.68 246.75 231.58 352.58 292.68"/><polygon class="cls-59" points="352.58 292.63 247.44 353.73 141.62 292.63 246.75 231.54 352.58 292.63"/><polygon class="cls-59" points="352.58 292.58 247.44 353.69 141.62 292.59 246.75 231.49 352.58 292.58"/><polygon class="cls-59" points="352.58 292.54 247.44 353.64 141.62 292.54 246.75 231.44 352.58 292.54"/><polygon class="cls-59" points="352.58 292.49 247.44 353.59 141.62 292.49 246.75 231.39 352.58 292.49"/><polygon class="cls-59" points="352.58 292.44 247.44 353.54 141.62 292.44 246.75 231.34 352.58 292.44"/><polygon class="cls-59" points="352.58 292.39 247.44 353.49 141.62 292.39 246.75 231.29 352.58 292.39"/><polygon class="cls-59" points="352.58 292.34 247.44 353.44 141.62 292.34 246.75 231.24 352.58 292.34"/><polygon class="cls-59" points="352.58 292.29 247.44 353.39 141.62 292.29 246.75 231.19 352.58 292.29"/><polygon class="cls-59" points="352.58 292.24 247.44 353.34 141.62 292.25 246.75 231.15 352.58 292.24"/><polygon class="cls-59" points="352.58 292.19 247.44 353.29 141.62 292.2 246.75 231.1 352.58 292.19"/><polygon class="cls-59" points="352.58 292.15 247.44 353.25 141.62 292.15 246.75 231.05 352.58 292.15"/><polygon class="cls-59" points="352.58 292.1 247.44 353.2 141.62 292.1 246.75 231 352.58 292.1"/><polygon class="cls-59" points="352.58 292.05 247.44 353.15 141.62 292.05 246.75 230.95 352.58 292.05"/><polygon class="cls-59" points="352.58 292 247.44 353.1 141.62 292 246.75 230.9 352.58 292"/><polygon class="cls-59" points="352.58 291.95 247.44 353.05 141.62 291.95 246.75 230.85 352.58 291.95"/><polygon class="cls-59" points="352.58 291.9 247.44 353 141.62 291.9 246.75 230.8 352.58 291.9"/><polygon class="cls-59" points="352.58 291.85 247.44 352.95 141.62 291.86 246.75 230.75 352.58 291.85"/><polygon class="cls-59" points="352.58 291.81 247.44 352.9 141.62 291.81 246.75 230.71 352.58 291.81"/><polygon class="cls-59" points="352.58 291.76 247.44 352.86 141.62 291.76 246.75 230.66 352.58 291.76"/><polygon class="cls-59" points="352.58 291.71 247.44 352.81 141.62 291.71 246.75 230.61 352.58 291.71"/><polygon class="cls-59" points="352.58 291.66 247.44 352.76 141.62 291.66 246.75 230.56 352.58 291.66"/><polygon class="cls-59" points="352.58 291.61 247.44 352.71 141.62 291.61 246.75 230.51 352.58 291.61"/><polygon class="cls-59" points="352.58 291.56 247.44 352.66 141.62 291.56 246.75 230.46 352.58 291.56"/><polygon class="cls-59" points="352.58 291.51 247.44 352.61 141.62 291.51 246.75 230.41 352.58 291.51"/><polygon class="cls-59" points="352.58 291.46 247.44 352.56 141.62 291.46 246.75 230.37 352.58 291.46"/><polygon class="cls-59" points="352.58 291.42 247.44 352.51 141.62 291.42 246.75 230.32 352.58 291.42"/><polygon class="cls-59" points="352.58 291.37 247.44 352.46 141.62 291.37 246.75 230.27 352.58 291.37"/><polygon class="cls-59" points="352.58 291.32 247.44 352.42 141.62 291.32 246.75 230.22 352.58 291.32"/><polygon class="cls-59" points="352.58 291.27 247.44 352.37 141.62 291.27 246.75 230.17 352.58 291.27"/><polygon class="cls-59" points="352.58 291.22 247.44 352.32 141.62 291.22 246.75 230.12 352.58 291.22"/><polygon class="cls-59" points="352.58 291.17 247.44 352.27 141.62 291.17 246.75 230.07 352.58 291.17"/><polygon class="cls-59" points="352.58 291.12 247.44 352.22 141.62 291.12 246.75 230.02 352.58 291.12"/><polygon class="cls-59" points="352.58 291.07 247.44 352.17 141.62 291.07 246.75 229.97 352.58 291.07"/><polygon class="cls-59" points="352.58 291.02 247.44 352.12 141.62 291.03 246.75 229.93 352.58 291.02"/><polygon class="cls-59" points="352.58 290.98 247.44 352.07 141.62 290.98 246.75 229.88 352.58 290.98"/><polygon class="cls-59" points="352.58 290.93 247.44 352.03 141.62 290.93 246.75 229.83 352.58 290.93"/><polygon class="cls-59" points="352.58 290.88 247.44 351.98 141.62 290.88 246.75 229.78 352.58 290.88"/><polygon class="cls-59" points="352.58 290.83 247.44 351.93 141.62 290.83 246.75 229.73 352.58 290.83"/><polygon class="cls-59" points="352.58 290.78 247.44 351.88 141.62 290.78 246.75 229.68 352.58 290.78"/><polygon class="cls-59" points="352.58 290.73 247.44 351.83 141.62 290.73 246.75 229.63 352.58 290.73"/><polygon class="cls-59" points="352.58 290.68 247.44 351.78 141.62 290.68 246.75 229.59 352.58 290.68"/><polygon class="cls-59" points="352.58 290.63 247.44 351.73 141.62 290.63 246.75 229.54 352.58 290.63"/><polygon class="cls-59" points="352.58 290.59 247.44 351.69 141.62 290.59 246.75 229.49 352.58 290.59"/><polygon class="cls-59" points="352.58 290.54 247.44 351.64 141.62 290.54 246.75 229.44 352.58 290.54"/><polygon class="cls-59" points="352.58 290.49 247.44 351.59 141.62 290.49 246.75 229.39 352.58 290.49"/><polygon class="cls-59" points="352.58 290.44 247.44 351.54 141.62 290.44 246.75 229.34 352.58 290.44"/><polygon class="cls-59" points="352.58 290.39 247.44 351.49 141.62 290.39 246.75 229.29 352.58 290.39"/><polygon class="cls-59" points="352.58 290.34 247.44 351.44 141.62 290.34 246.75 229.24 352.58 290.34"/><polygon class="cls-59" points="352.58 290.29 247.44 351.39 141.62 290.29 246.75 229.19 352.58 290.29"/><polygon class="cls-59" points="352.58 290.24 247.44 351.34 141.62 290.25 246.75 229.15 352.58 290.24"/><polygon class="cls-59" points="352.58 290.2 247.44 351.3 141.62 290.2 246.75 229.1 352.58 290.2"/><polygon class="cls-59" points="352.58 290.15 247.44 351.25 141.62 290.15 246.75 229.05 352.58 290.15"/><polygon class="cls-59" points="352.58 290.1 247.44 351.2 141.62 290.1 246.75 229 352.58 290.1"/><polygon class="cls-59" points="352.58 290.05 247.44 351.15 141.62 290.05 246.75 228.95 352.58 290.05"/><polygon class="cls-59" points="352.58 290 247.44 351.1 141.62 290 246.75 228.9 352.58 290"/><polygon class="cls-59" points="352.58 289.95 247.44 351.05 141.62 289.95 246.75 228.85 352.58 289.95"/><polygon class="cls-59" points="352.58 289.9 247.44 351 141.62 289.9 246.75 228.81 352.58 289.9"/><polygon class="cls-59" points="352.58 289.85 247.44 350.95 141.62 289.86 246.75 228.76 352.58 289.85"/><polygon class="cls-59" points="352.58 289.81 247.44 350.9 141.62 289.81 246.75 228.71 352.58 289.81"/><polygon class="cls-59" points="352.58 289.76 247.44 350.86 141.62 289.76 246.75 228.66 352.58 289.76"/><polygon class="cls-59" points="352.58 289.71 247.44 350.81 141.62 289.71 246.75 228.61 352.58 289.71"/><polygon class="cls-59" points="352.58 289.66 247.44 350.76 141.62 289.66 246.75 228.56 352.58 289.66"/><polygon class="cls-59" points="352.58 289.61 247.44 350.71 141.62 289.61 246.75 228.51 352.58 289.61"/><polygon class="cls-59" points="352.58 289.56 247.44 350.66 141.62 289.56 246.75 228.46 352.58 289.56"/><polygon class="cls-59" points="352.58 289.51 247.44 350.61 141.62 289.51 246.75 228.41 352.58 289.51"/><polygon class="cls-59" points="352.58 289.46 247.44 350.56 141.62 289.46 246.75 228.37 352.58 289.46"/><polygon class="cls-59" points="352.58 289.42 247.44 350.51 141.62 289.42 246.75 228.32 352.58 289.42"/><polygon class="cls-59" points="352.58 289.37 247.44 350.47 141.62 289.37 246.75 228.27 352.58 289.37"/><polygon class="cls-59" points="352.58 289.32 247.44 350.42 141.62 289.32 246.75 228.22 352.58 289.32"/><polygon class="cls-59" points="352.58 289.27 247.44 350.37 141.62 289.27 246.75 228.17 352.58 289.27"/><polygon class="cls-59" points="352.58 289.22 247.44 350.32 141.62 289.22 246.75 228.12 352.58 289.22"/><polygon class="cls-59" points="352.58 289.17 247.44 350.27 141.62 289.17 246.75 228.07 352.58 289.17"/><polygon class="cls-59" points="352.58 289.12 247.44 350.22 141.62 289.12 246.75 228.02 352.58 289.12"/><polygon class="cls-59" points="352.58 289.07 247.44 350.17 141.62 289.07 246.75 227.98 352.58 289.07"/><polygon class="cls-59" points="352.58 289.02 247.44 350.12 141.62 289.03 246.75 227.93 352.58 289.02"/><polygon class="cls-59" points="352.58 288.98 247.44 350.08 141.62 288.98 246.75 227.88 352.58 288.98"/><polygon class="cls-59" points="352.58 288.93 247.44 350.03 141.62 288.93 246.75 227.83 352.58 288.93"/><polygon class="cls-59" points="352.58 288.88 247.44 349.98 141.62 288.88 246.75 227.78 352.58 288.88"/><polygon class="cls-59" points="352.58 288.83 247.44 349.93 141.62 288.83 246.75 227.73 352.58 288.83"/><polygon class="cls-59" points="352.58 288.78 247.44 349.88 141.62 288.78 246.75 227.68 352.58 288.78"/><polygon class="cls-59" points="352.58 288.73 247.44 349.83 141.62 288.73 246.75 227.63 352.58 288.73"/><polygon class="cls-59" points="352.58 288.68 247.44 349.78 141.62 288.69 246.75 227.59 352.58 288.68"/><polygon class="cls-59" points="352.58 288.63 247.44 349.73 141.62 288.64 246.75 227.54 352.58 288.63"/><polygon class="cls-59" points="352.58 288.59 247.44 349.69 141.62 288.59 246.75 227.49 352.58 288.59"/><polygon class="cls-59" points="352.58 288.54 247.44 349.64 141.62 288.54 246.75 227.44 352.58 288.54"/><polygon class="cls-59" points="352.58 288.49 247.44 349.59 141.62 288.49 246.75 227.39 352.58 288.49"/><polygon class="cls-59" points="352.58 288.44 247.44 349.54 141.62 288.44 246.75 227.34 352.58 288.44"/><polygon class="cls-59" points="352.58 288.39 247.44 349.49 141.62 288.39 246.75 227.29 352.58 288.39"/><polygon class="cls-59" points="352.58 288.34 247.44 349.44 141.62 288.34 246.75 227.24 352.58 288.34"/><polygon class="cls-59" points="352.58 288.29 247.44 349.39 141.62 288.3 246.75 227.19 352.58 288.29"/><polygon class="cls-59" points="352.58 288.25 247.44 349.34 141.62 288.25 246.75 227.15 352.58 288.25"/><polygon class="cls-59" points="352.58 288.2 247.44 349.3 141.62 288.2 246.75 227.1 352.58 288.2"/><polygon class="cls-59" points="352.58 288.15 247.44 349.25 141.62 288.15 246.75 227.05 352.58 288.15"/><polygon class="cls-59" points="352.58 288.1 247.44 349.2 141.62 288.1 246.75 227 352.58 288.1"/><polygon class="cls-59" points="352.58 288.05 247.44 349.15 141.62 288.05 246.75 226.95 352.58 288.05"/><polygon class="cls-59" points="352.58 288 247.44 349.1 141.62 288 246.75 226.9 352.58 288"/><polygon class="cls-59" points="352.58 287.95 247.44 349.05 141.62 287.95 246.75 226.85 352.58 287.95"/><polygon class="cls-59" points="352.58 287.9 247.44 349 141.62 287.9 246.75 226.81 352.58 287.9"/><polygon class="cls-59" points="352.58 287.86 247.44 348.95 141.62 287.86 246.75 226.76 352.58 287.86"/><polygon class="cls-59" points="352.58 287.81 247.44 348.9 141.62 287.81 246.75 226.71 352.58 287.81"/><polygon class="cls-59" points="352.58 287.76 247.44 348.86 141.62 287.76 246.75 226.66 352.58 287.76"/><polygon class="cls-59" points="352.58 287.71 247.44 348.81 141.62 287.71 246.75 226.61 352.58 287.71"/></g></g><g id="Cube_alone-3" data-name="Cube alone"><g class="cls-2"><polygon class="cls-60" points="317.81 277.61 247.33 318.57 176.39 277.61 246.87 236.65 317.81 277.61"/><polygon class="cls-61" points="317.81 277.2 247.33 318.16 176.39 277.2 246.87 236.25 317.81 277.2"/><polygon class="cls-61" points="317.81 276.79 247.33 317.75 176.39 276.79 246.87 235.84 317.81 276.79"/><polygon class="cls-62" points="317.81 276.39 247.33 317.34 176.39 276.39 246.87 235.43 317.81 276.39"/><polygon class="cls-62" points="317.81 275.98 247.33 316.94 176.39 275.98 246.87 235.02 317.81 275.98"/><polygon class="cls-63" points="317.81 275.57 247.33 316.53 176.39 275.57 246.87 234.61 317.81 275.57"/><polygon class="cls-63" points="317.81 275.16 247.33 316.12 176.39 275.16 246.87 234.21 317.81 275.16"/><polygon class="cls-64" points="317.81 274.75 247.33 315.71 176.39 274.75 246.87 233.8 317.81 274.75"/><polygon class="cls-64" points="317.81 274.35 247.33 315.3 176.39 274.35 246.87 233.39 317.81 274.35"/><polygon class="cls-65" points="317.81 273.94 247.33 314.9 176.39 273.94 246.87 232.98 317.81 273.94"/><polygon class="cls-65" points="317.81 273.53 247.33 314.49 176.39 273.53 246.87 232.57 317.81 273.53"/><polygon class="cls-66" points="317.81 273.12 247.33 314.08 176.39 273.12 246.87 232.16 317.81 273.12"/><polygon class="cls-66" points="317.81 272.71 247.33 313.67 176.39 272.71 246.87 231.76 317.81 272.71"/><polygon class="cls-67" points="317.81 272.31 247.33 313.26 176.39 272.31 246.87 231.35 317.81 272.31"/><polygon class="cls-67" points="317.81 271.9 247.33 312.86 176.39 271.9 246.87 230.94 317.81 271.9"/><polygon class="cls-68" points="317.81 271.49 247.33 312.45 176.39 271.49 246.87 230.53 317.81 271.49"/><polygon class="cls-69" points="317.81 271.08 247.33 312.04 176.39 271.08 246.87 230.13 317.81 271.08"/><polygon class="cls-69" points="317.81 270.67 247.33 311.63 176.39 270.68 246.87 229.72 317.81 270.67"/><polygon class="cls-70" points="317.81 270.27 247.33 311.22 176.39 270.27 246.87 229.31 317.81 270.27"/><polygon class="cls-70" points="317.81 269.86 247.33 310.82 176.39 269.86 246.87 228.9 317.81 269.86"/><polygon class="cls-71" points="317.81 269.45 247.33 310.41 176.39 269.45 246.87 228.49 317.81 269.45"/><polygon class="cls-71" points="317.81 269.04 247.33 310 176.39 269.04 246.87 228.09 317.81 269.04"/><polygon class="cls-72" points="317.81 268.63 247.33 309.59 176.39 268.63 246.87 227.68 317.81 268.63"/><polygon class="cls-72" points="317.81 268.23 247.33 309.18 176.39 268.23 246.87 227.27 317.81 268.23"/><polygon class="cls-73" points="317.81 267.82 247.33 308.78 176.39 267.82 246.87 226.86 317.81 267.82"/><polygon class="cls-73" points="317.81 267.41 247.33 308.37 176.39 267.41 246.87 226.45 317.81 267.41"/><polygon class="cls-74" points="317.81 267 247.33 307.96 176.39 267 246.87 226.05 317.81 267"/><polygon class="cls-74" points="317.81 266.6 247.33 307.55 176.39 266.6 246.87 225.64 317.81 266.6"/><polygon class="cls-75" points="317.81 266.19 247.33 307.14 176.39 266.19 246.87 225.23 317.81 266.19"/><polygon class="cls-75" points="317.81 265.78 247.33 306.74 176.39 265.78 246.87 224.82 317.81 265.78"/><polygon class="cls-76" points="317.81 265.37 247.33 306.33 176.39 265.37 246.87 224.41 317.81 265.37"/><polygon class="cls-77" points="317.81 264.96 247.33 305.92 176.39 264.96 246.87 224.01 317.81 264.96"/><polygon class="cls-77" points="317.81 264.56 247.33 305.51 176.39 264.56 246.87 223.6 317.81 264.56"/><polygon class="cls-78" points="317.81 264.15 247.33 305.11 176.39 264.15 246.87 223.19 317.81 264.15"/><polygon class="cls-79" points="317.81 263.74 247.33 304.7 176.39 263.74 246.87 222.78 317.81 263.74"/><polygon class="cls-80" points="317.81 263.33 247.33 304.29 176.39 263.33 246.87 222.37 317.81 263.33"/><polygon class="cls-80" points="317.81 262.92 247.33 303.88 176.39 262.92 246.87 221.97 317.81 262.92"/><polygon class="cls-81" points="317.81 262.51 247.33 303.47 176.39 262.52 246.87 221.56 317.81 262.51"/><polygon class="cls-81" points="317.81 262.11 247.33 303.06 176.39 262.11 246.87 221.15 317.81 262.11"/><polygon class="cls-82" points="317.81 261.7 247.33 302.66 176.39 261.7 246.87 220.74 317.81 261.7"/><polygon class="cls-82" points="317.81 261.29 247.33 302.25 176.39 261.29 246.87 220.33 317.81 261.29"/><polygon class="cls-83" points="317.81 260.88 247.33 301.84 176.39 260.88 246.87 219.93 317.81 260.88"/><polygon class="cls-83" points="317.81 260.48 247.33 301.43 176.39 260.48 246.87 219.52 317.81 260.48"/><polygon class="cls-84" points="317.81 260.07 247.33 301.02 176.39 260.07 246.87 219.11 317.81 260.07"/><polygon class="cls-84" points="317.81 259.66 247.33 300.62 176.39 259.66 246.87 218.7 317.81 259.66"/><polygon class="cls-85" points="317.81 259.25 247.33 300.21 176.39 259.25 246.87 218.29 317.81 259.25"/><polygon class="cls-85" points="317.81 258.84 247.33 299.8 176.39 258.84 246.87 217.89 317.81 258.84"/><polygon class="cls-86" points="317.81 258.44 247.33 299.39 176.39 258.44 246.87 217.48 317.81 258.44"/><polygon class="cls-87" points="317.81 258.03 247.33 298.99 176.39 258.03 246.87 217.07 317.81 258.03"/><polygon class="cls-87" points="317.81 257.62 247.33 298.58 176.39 257.62 246.87 216.66 317.81 257.62"/><polygon class="cls-88" points="317.81 257.21 247.33 298.17 176.39 257.21 246.87 216.25 317.81 257.21"/><polygon class="cls-88" points="317.81 256.8 247.33 297.76 176.39 256.8 246.87 215.85 317.81 256.8"/><polygon class="cls-89" points="317.81 256.4 247.33 297.35 176.39 256.4 246.87 215.44 317.81 256.4"/><polygon class="cls-89" points="317.81 255.99 247.33 296.95 176.39 255.99 246.87 215.03 317.81 255.99"/><polygon class="cls-90" points="317.81 255.58 247.33 296.54 176.39 255.58 246.87 214.62 317.81 255.58"/><polygon class="cls-90" points="317.81 255.17 247.33 296.13 176.39 255.17 246.87 214.22 317.81 255.17"/><polygon class="cls-91" points="317.81 254.76 247.33 295.72 176.39 254.76 246.87 213.81 317.81 254.76"/><polygon class="cls-91" points="317.81 254.36 247.33 295.31 176.39 254.36 246.87 213.4 317.81 254.36"/><polygon class="cls-92" points="317.81 253.95 247.33 294.91 176.39 253.95 246.87 212.99 317.81 253.95"/><polygon class="cls-92" points="317.81 253.54 247.33 294.5 176.39 253.54 246.87 212.58 317.81 253.54"/><polygon class="cls-93" points="317.81 253.13 247.33 294.09 176.39 253.13 246.87 212.18 317.81 253.13"/><polygon class="cls-93" points="317.81 252.72 247.33 293.68 176.39 252.72 246.87 211.77 317.81 252.72"/><polygon class="cls-94" points="317.81 252.32 247.33 293.27 176.39 252.32 246.87 211.36 317.81 252.32"/><polygon class="cls-95" points="317.81 251.91 247.33 292.87 176.39 251.91 246.87 210.95 317.81 251.91"/><polygon class="cls-95" points="317.81 251.5 247.33 292.46 176.39 251.5 246.87 210.54 317.81 251.5"/><polygon class="cls-96" points="317.81 251.09 247.33 292.05 176.39 251.09 246.87 210.13 317.81 251.09"/><polygon class="cls-96" points="317.81 250.68 247.33 291.64 176.39 250.69 246.87 209.73 317.81 250.68"/><polygon class="cls-97" points="317.81 250.28 247.33 291.23 176.39 250.28 246.87 209.32 317.81 250.28"/><polygon class="cls-97" points="317.81 249.87 247.33 290.83 176.39 249.87 246.87 208.91 317.81 249.87"/><polygon class="cls-98" points="317.81 249.46 247.33 290.42 176.39 249.46 246.87 208.5 317.81 249.46"/><polygon class="cls-98" points="317.81 249.05 247.33 290.01 176.39 249.05 246.87 208.09 317.81 249.05"/><polygon class="cls-99" points="317.81 248.65 247.33 289.6 176.39 248.65 246.87 207.69 317.81 248.65"/><polygon class="cls-99" points="317.81 248.24 247.33 289.19 176.39 248.24 246.87 207.28 317.81 248.24"/><polygon class="cls-100" points="317.81 247.83 247.33 288.79 176.39 247.83 246.87 206.87 317.81 247.83"/><polygon class="cls-100" points="317.81 247.42 247.33 288.38 176.39 247.42 246.87 206.46 317.81 247.42"/><polygon class="cls-101" points="317.81 247.01 247.33 287.97 176.39 247.01 246.87 206.06 317.81 247.01"/><polygon class="cls-101" points="317.81 246.6 247.33 287.56 176.39 246.6 246.87 205.65 317.81 246.6"/><polygon class="cls-102" points="317.81 246.2 247.33 287.15 176.39 246.2 246.87 205.24 317.81 246.2"/><polygon class="cls-103" points="317.81 245.79 247.33 286.75 176.39 245.79 246.87 204.83 317.81 245.79"/><polygon class="cls-103" points="317.81 245.38 247.33 286.34 176.39 245.38 246.87 204.42 317.81 245.38"/><polygon class="cls-104" points="317.81 244.97 247.33 285.93 176.39 244.97 246.87 204.02 317.81 244.97"/><polygon class="cls-104" points="317.81 244.56 247.33 285.52 176.39 244.57 246.87 203.61 317.81 244.56"/><polygon class="cls-105" points="317.81 244.16 247.33 285.12 176.39 244.16 246.87 203.2 317.81 244.16"/><polygon class="cls-105" points="317.81 243.75 247.33 284.71 176.39 243.75 246.87 202.79 317.81 243.75"/><polygon class="cls-106" points="317.81 243.34 247.33 284.3 176.39 243.34 246.87 202.38 317.81 243.34"/><polygon class="cls-106" points="317.81 242.93 247.33 283.89 176.39 242.93 246.87 201.98 317.81 242.93"/><polygon class="cls-107" points="317.81 242.53 247.33 283.48 176.39 242.53 246.87 201.57 317.81 242.53"/><polygon class="cls-107" points="317.81 242.12 247.33 283.07 176.39 242.12 246.87 201.16 317.81 242.12"/><polygon class="cls-108" points="317.81 241.71 247.33 282.67 176.39 241.71 246.87 200.75 317.81 241.71"/><polygon class="cls-108" points="317.81 241.3 247.33 282.26 176.39 241.3 246.87 200.34 317.81 241.3"/><polygon class="cls-109" points="317.81 240.89 247.33 281.85 176.39 240.89 246.87 199.94 317.81 240.89"/><polygon class="cls-109" points="317.81 240.49 247.33 281.44 176.39 240.49 246.87 199.53 317.81 240.49"/><polygon class="cls-110" points="317.81 240.08 247.33 281.04 176.39 240.08 246.87 199.12 317.81 240.08"/><polygon class="cls-111" points="317.81 239.67 247.33 280.63 176.39 239.67 246.87 198.71 317.81 239.67"/><polygon class="cls-111" points="317.81 239.26 247.33 280.22 176.39 239.26 246.87 198.3 317.81 239.26"/><polygon class="cls-112" points="317.81 238.85 247.33 279.81 176.39 238.85 246.87 197.9 317.81 238.85"/><polygon class="cls-112" points="317.81 238.45 247.33 279.4 176.39 238.45 246.87 197.49 317.81 238.45"/><polygon class="cls-113" points="317.81 238.04 247.33 279 176.39 238.04 246.87 197.08 317.81 238.04"/><polygon class="cls-113" points="317.81 237.63 247.33 278.59 176.39 237.63 246.87 196.67 317.81 237.63"/><polygon class="cls-114" points="317.81 237.22 247.33 278.18 176.39 237.22 246.87 196.26 317.81 237.22"/><polygon class="cls-114" points="317.81 236.81 247.33 277.77 176.39 236.81 246.87 195.86 317.81 236.81"/><polygon class="cls-115" points="317.81 236.41 247.33 277.36 176.39 236.41 246.87 195.45 317.81 236.41"/><polygon class="cls-115" points="317.81 236 247.33 276.96 176.39 236 246.87 195.04 317.81 236"/><polygon class="cls-116" points="317.81 235.59 247.33 276.55 176.39 235.59 246.87 194.63 317.81 235.59"/><polygon class="cls-116" points="317.81 235.18 247.33 276.14 176.39 235.18 246.87 194.22 317.81 235.18"/><polygon class="cls-117" points="317.81 234.77 247.33 275.73 176.39 234.78 246.87 193.82 317.81 234.77"/><polygon class="cls-117" points="317.81 234.37 247.33 275.32 176.39 234.37 246.87 193.41 317.81 234.37"/><polygon class="cls-118" points="317.81 233.96 247.33 274.92 176.39 233.96 246.87 193 317.81 233.96"/><polygon class="cls-118" points="317.81 233.55 247.33 274.51 176.39 233.55 246.87 192.59 317.81 233.55"/><polygon class="cls-119" points="317.81 233.14 247.33 274.1 176.39 233.14 246.87 192.19 317.81 233.14"/><polygon class="cls-120" points="317.81 232.73 247.33 273.69 176.39 232.74 246.87 191.78 317.81 232.73"/><polygon class="cls-120" points="317.81 232.33 247.33 273.28 176.39 232.33 246.87 191.37 317.81 232.33"/><polygon class="cls-121" points="317.81 231.92 247.33 272.88 176.39 231.92 246.87 190.96 317.81 231.92"/><polygon class="cls-121" points="317.81 231.51 247.33 272.47 176.39 231.51 246.87 190.55 317.81 231.51"/><polygon class="cls-122" points="317.81 231.1 247.33 272.06 176.39 231.1 246.87 190.15 317.81 231.1"/><polygon class="cls-122" points="317.81 230.69 247.33 271.65 176.39 230.69 246.87 189.74 317.81 230.69"/><polygon class="cls-123" points="317.81 230.29 247.33 271.24 176.39 230.29 246.87 189.33 317.81 230.29"/><polygon class="cls-123" points="317.81 229.88 247.33 270.84 176.39 229.88 246.87 188.92 317.81 229.88"/><polygon class="cls-124" points="317.81 229.47 247.33 270.43 176.39 229.47 246.87 188.51 317.81 229.47"/><polygon class="cls-124" points="317.81 229.06 247.33 270.02 176.39 229.06 246.87 188.1 317.81 229.06"/><polygon class="cls-125" points="317.81 228.65 247.33 269.61 176.39 228.66 246.87 187.7 317.81 228.65"/><polygon class="cls-125" points="317.81 228.25 247.33 269.2 176.39 228.25 246.87 187.29 317.81 228.25"/><polygon class="cls-126" points="317.81 227.84 247.33 268.8 176.39 227.84 246.87 186.88 317.81 227.84"/><polygon class="cls-126" points="317.81 227.43 247.33 268.39 176.39 227.43 246.87 186.47 317.81 227.43"/><polygon class="cls-127" points="317.81 227.02 247.33 267.98 176.39 227.02 246.87 186.06 317.81 227.02"/><polygon class="cls-128" points="317.81 226.62 247.33 267.57 176.39 226.62 246.87 185.66 317.81 226.62"/><polygon class="cls-128" points="317.81 226.21 247.33 267.17 176.39 226.21 246.87 185.25 317.81 226.21"/><polygon class="cls-129" points="317.81 225.8 247.33 266.76 176.39 225.8 246.87 184.84 317.81 225.8"/><polygon class="cls-129" points="317.81 225.39 247.33 266.35 176.39 225.39 246.87 184.43 317.81 225.39"/><polygon class="cls-130" points="317.81 224.98 247.33 265.94 176.39 224.98 246.87 184.03 317.81 224.98"/><polygon class="cls-130" points="317.81 224.57 247.33 265.53 176.39 224.58 246.87 183.62 317.81 224.57"/><polygon class="cls-131" points="317.81 224.17 247.33 265.13 176.39 224.17 246.87 183.21 317.81 224.17"/><polygon class="cls-131" points="317.81 223.76 247.33 264.72 176.39 223.76 246.87 182.8 317.81 223.76"/><polygon class="cls-132" points="317.81 223.35 247.33 264.31 176.39 223.35 246.87 182.39 317.81 223.35"/><polygon class="cls-132" points="317.81 222.94 247.33 263.9 176.39 222.94 246.87 181.99 317.81 222.94"/><polygon class="cls-133" points="317.81 222.53 247.33 263.49 176.39 222.54 246.87 181.58 317.81 222.53"/><polygon class="cls-133" points="317.81 222.13 247.33 263.08 176.39 222.13 246.87 181.17 317.81 222.13"/><polygon class="cls-134" points="317.81 221.72 247.33 262.68 176.39 221.72 246.87 180.76 317.81 221.72"/><polygon class="cls-134" points="317.81 221.31 247.33 262.27 176.39 221.31 246.87 180.35 317.81 221.31"/><polygon class="cls-135" points="317.81 220.9 247.33 261.86 176.39 220.9 246.87 179.95 317.81 220.9"/><polygon class="cls-136" points="317.81 220.5 247.33 261.45 176.39 220.5 246.87 179.54 317.81 220.5"/><polygon class="cls-136" points="317.81 220.09 247.33 261.05 176.39 220.09 246.87 179.13 317.81 220.09"/><polygon class="cls-137" points="317.81 219.68 247.33 260.64 176.39 219.68 246.87 178.72 317.81 219.68"/><polygon class="cls-137" points="317.81 219.27 247.33 260.23 176.39 219.27 246.87 178.31 317.81 219.27"/><polygon class="cls-138" points="317.81 218.86 247.33 259.82 176.39 218.86 246.87 177.91 317.81 218.86"/><polygon class="cls-138" points="317.81 218.46 247.33 259.41 176.39 218.46 246.87 177.5 317.81 218.46"/><polygon class="cls-139" points="317.81 218.05 247.33 259 176.39 218.05 246.87 177.09 317.81 218.05"/><polygon class="cls-139" points="317.81 217.64 247.33 258.6 176.39 217.64 246.87 176.68 317.81 217.64"/><polygon class="cls-140" points="317.81 217.23 247.33 258.19 176.39 217.23 246.87 176.27 317.81 217.23"/><polygon class="cls-140" points="317.81 216.82 247.33 257.78 176.39 216.82 246.87 175.87 317.81 216.82"/><polygon class="cls-141" points="317.81 216.42 247.33 257.37 176.39 216.42 246.87 175.46 317.81 216.42"/><polygon class="cls-141" points="317.81 216.01 247.33 256.97 176.39 216.01 246.87 175.05 317.81 216.01"/><polygon class="cls-142" points="317.81 215.6 247.33 256.56 176.39 215.6 246.87 174.64 317.81 215.6"/><polygon class="cls-142" points="317.81 215.19 247.33 256.15 176.39 215.19 246.87 174.24 317.81 215.19"/><polygon class="cls-143" points="317.81 214.78 247.33 255.74 176.39 214.78 246.87 173.83 317.81 214.78"/><polygon class="cls-144" points="317.81 214.38 247.33 255.33 176.39 214.38 246.87 173.42 317.81 214.38"/><polygon class="cls-144" points="317.81 213.97 247.33 254.93 176.39 213.97 246.87 173.01 317.81 213.97"/><polygon class="cls-145" points="317.81 213.56 247.33 254.52 176.39 213.56 246.87 172.6 317.81 213.56"/><polygon class="cls-145" points="317.81 213.15 247.33 254.11 176.39 213.15 246.87 172.19 317.81 213.15"/><polygon class="cls-146" points="317.81 212.74 247.33 253.7 176.39 212.75 246.87 171.79 317.81 212.74"/><polygon class="cls-146" points="317.81 212.34 247.33 253.29 176.39 212.34 246.87 171.38 317.81 212.34"/><polygon class="cls-147" points="317.81 211.93 247.33 252.89 176.39 211.93 246.87 170.97 317.81 211.93"/><polygon class="cls-147" points="317.81 211.52 247.33 252.48 176.39 211.52 246.87 170.56 317.81 211.52"/><polygon class="cls-148" points="317.81 211.11 247.33 252.07 176.39 211.11 246.87 170.16 317.81 211.11"/><polygon class="cls-148" points="317.81 210.7 247.33 251.66 176.39 210.71 246.87 169.75 317.81 210.7"/><polygon class="cls-149" points="317.81 210.3 247.33 251.25 176.39 210.3 246.87 169.34 317.81 210.3"/><polygon class="cls-149" points="317.81 209.89 247.33 250.85 176.39 209.89 246.87 168.93 317.81 209.89"/><polygon class="cls-150" points="317.81 209.48 247.33 250.44 176.39 209.48 246.87 168.52 317.81 209.48"/><polygon class="cls-151" points="317.81 209.07 247.33 250.03 176.39 209.07 246.87 168.12 317.81 209.07"/><polygon class="cls-152" points="317.81 208.66 247.33 249.62 176.39 208.66 246.87 167.71 317.81 208.66"/><polygon class="cls-152" points="317.81 208.26 247.33 249.21 176.39 208.26 246.87 167.3 317.81 208.26"/><polygon class="cls-153" points="317.81 207.85 247.33 248.81 176.39 207.85 246.87 166.89 317.81 207.85"/><polygon class="cls-154" points="317.81 207.44 247.33 248.4 176.39 207.44 246.87 166.48 317.81 207.44"/><polygon class="cls-154" points="317.81 207.03 247.33 247.99 176.39 207.03 246.87 166.07 317.81 207.03"/><polygon class="cls-155" points="317.81 206.63 247.33 247.58 176.39 206.63 246.87 165.67 317.81 206.63"/><polygon class="cls-155" points="317.81 206.22 247.33 247.18 176.39 206.22 246.87 165.26 317.81 206.22"/><polygon class="cls-156" points="317.81 205.81 247.33 246.77 176.39 205.81 246.87 164.85 317.81 205.81"/><polygon class="cls-156" points="317.81 205.4 247.33 246.36 176.39 205.4 246.87 164.44 317.81 205.4"/><polygon class="cls-157" points="317.81 204.99 247.33 245.95 176.39 204.99 246.87 164.04 317.81 204.99"/><polygon class="cls-157" points="317.81 204.59 247.33 245.54 176.39 204.59 246.87 163.63 317.81 204.59"/><polygon class="cls-158" points="317.81 204.18 247.33 245.13 176.39 204.18 246.87 163.22 317.81 204.18"/><polygon class="cls-158" points="317.81 203.77 247.33 244.73 176.39 203.77 246.87 162.81 317.81 203.77"/><polygon class="cls-159" points="317.81 203.36 247.33 244.32 176.39 203.36 246.87 162.4 317.81 203.36"/><polygon class="cls-159" points="317.81 202.95 247.33 243.91 176.39 202.95 246.87 162 317.81 202.95"/><polygon class="cls-160" points="317.81 202.54 247.33 243.5 176.39 202.55 246.87 161.59 317.81 202.54"/><polygon class="cls-160" points="317.81 202.14 247.33 243.09 176.39 202.14 246.87 161.18 317.81 202.14"/><polygon class="cls-161" points="317.81 201.73 247.33 242.69 176.39 201.73 246.87 160.77 317.81 201.73"/><polygon class="cls-162" points="317.81 201.32 247.33 242.28 176.39 201.32 246.87 160.36 317.81 201.32"/><polygon class="cls-162" points="317.81 200.91 247.33 241.87 176.39 200.91 246.87 159.96 317.81 200.91"/><polygon class="cls-163" points="317.81 200.5 247.33 241.46 176.39 200.51 246.87 159.55 317.81 200.5"/><polygon class="cls-163" points="317.81 200.1 247.33 241.06 176.39 200.1 246.87 159.14 317.81 200.1"/><polygon class="cls-164" points="317.81 199.69 247.33 240.65 176.39 199.69 246.87 158.73 317.81 199.69"/><polygon class="cls-164" points="317.81 199.28 247.33 240.24 176.39 199.28 246.87 158.32 317.81 199.28"/><polygon class="cls-165" points="317.81 198.87 247.33 239.83 176.39 198.87 246.87 157.92 317.81 198.87"/><polygon class="cls-165" points="317.81 198.47 247.33 239.42 176.39 198.47 246.87 157.51 317.81 198.47"/><polygon class="cls-166" points="317.81 198.06 247.33 239.01 176.39 198.06 246.87 157.1 317.81 198.06"/><polygon class="cls-166" points="317.81 197.65 247.33 238.61 176.39 197.65 246.87 156.69 317.81 197.65"/><polygon class="cls-167" points="317.81 197.24 247.33 238.2 176.39 197.24 246.87 156.28 317.81 197.24"/><polygon class="cls-167" points="317.81 196.83 247.33 237.79 176.39 196.83 246.87 155.88 317.81 196.83"/><polygon class="cls-168" points="317.81 196.43 247.33 237.38 176.39 196.43 246.87 155.47 317.81 196.43"/><polygon class="cls-168" points="317.81 196.02 247.33 236.98 176.39 196.02 246.87 155.06 317.81 196.02"/><polygon class="cls-169" points="317.81 195.61 247.33 236.57 176.39 195.61 246.87 154.65 317.81 195.61"/></g><polygon class="cls-59" points="285.1 195.61 247.22 217.62 209.1 195.61 246.97 173.6 285.1 195.61"/></g><polygon class="cls-58" points="354.13 173.61 247.44 235.61 140.06 173.61 246.75 111.61 354.13 173.61"/><polygon class="cls-59" points="292.1 173.61 247.24 199.68 202.1 173.61 246.95 147.54 292.1 173.61"/><polyline class="cls-170" points="247.1 173.61 297 206.81 297 247.61"/><polygon class="cls-59" points="296.06 236.48 307.63 252.74 284.62 266.02 296.06 236.48"/></g></g></svg>